<?xml version="1.0" encoding="UTF-8"?>
<svg id="b" xmlns="http://www.w3.org/2000/svg" xmlns:xlink="http://www.w3.org/1999/xlink" viewBox="0 0 149.56415 163.14633"><defs><style>.f{fill:#fff;}.g{clip-path:url(#d);}.h{fill:url(#e);}.i{fill:none;}</style><clipPath id="d"><path class="i" d="m98.88367,65.121V18.21301c0-.44299.36005-.80301.80304-.80301h22.763c6.35498,0,10.255,3.66501,10.255,10.36401v27.896c0,6.74301-4.29102,10.254-10.255,10.254h-22.763c-.44299,0-.80304-.35901-.80304-.80301M82.57568,0c-.44299,0-.802.35901-.802.802v72.629L58.76868,8.375c-1.776-5.01898-6.52197-8.375-11.84601-8.375h-9.44897c-5.33099,0-10.08099,3.36301-11.85101,8.39001L.04468,81.02002c-.177.5.19403,1.02298.72302,1.02298h16.83698c.32501,0,.61603-.20599.724-.51498L41.34967,15.50201c.13403-.383.495-.64001.901-.64001.40704,0,.76904.25803.90204.64102l12.20697,35.18799h-19.55103l-5.96594,17.11099h31.45197l4.76099,13.72501c.10699.30902.39801.51599.72601.51599h57.45599c17.50299,0,25.32599-13.95798,25.32599-25.80197v-30.20203c0-14.85599-10.01099-26.039-25.32599-26.039h-41.66199Z"/></clipPath><linearGradient id="e" x1="-556.63531" y1="498.34526" x2="-555.63531" y2="498.34526" gradientTransform="translate(-65086.70988 72765.17576) rotate(90) scale(130.75558 -130.75558)" gradientUnits="userSpaceOnUse"><stop offset="0" stop-color="#f47a20"/><stop offset=".00141" stop-color="#f47a20"/><stop offset="1" stop-color="#faa634"/></linearGradient></defs><g id="c"><path class="f" d="m8.19409,133.02274H.66907v-15.28h7.52502c3.36597,0,4.716,1.46201,4.716,4.84998v5.625c0,1.70502-.354,2.923-1.08502,3.67603-.72998.75299-1.948,1.129-3.63098,1.129m1.74902-10.43002c0-1.66098-.44305-2.08197-2.05902-2.08197H3.63611v9.74399h4.24799c1.61597,0,2.05902-.44299,2.05902-2.05899v-5.60303Z"/><path class="f" d="m25.12634,111.18335h-7.52502v-15.28h7.52502c3.36597,0,4.716,1.46201,4.716,4.84998v5.625c0,1.70502-.354,2.923-1.08502,3.67603-.73102.75299-1.948,1.129-3.63098,1.129m1.74902-10.43002c0-1.66098-.44305-2.08197-2.06006-2.08197h-4.24695v9.74399h4.24695c1.617,0,2.06006-.44299,2.06006-2.05899v-5.60303Z"/><polygon class="f" points="25.75031 133.02301 15.65228 133.02301 15.65228 117.74301 25.75031 117.74301 25.75031 120.51102 18.61926 120.51102 18.61926 123.89902 24.93128 123.89902 24.93128 126.66702 18.61926 126.66702 18.61926 130.25504 25.75031 130.25504 25.75031 133.02301"/><path class="f" d="m37.64942,131.47281h-1.60101c-.78699,0-1.48303-.51398-1.71399-1.267l-2.97705-9.69498h-.133v12.51199h-2.96796v-15.28h2.78094c1.375,0,2.59003.896,2.99603,2.20999l2.70502,8.75201h.22101l2.71295-8.77502c.40204-1.29999,1.60303-2.18698,2.96405-2.18698h2.80499v15.28h-2.96704v-12.51199h-.133l-2.97699,9.69498c-.23199.75302-.927,1.267-1.71497,1.267"/><path class="f" d="m55.67578,133.15634h-2.74603c-3.36597,0-4.71698-1.46201-4.71698-4.85001v-5.86899c0-3.388,1.35101-4.827,4.71698-4.827h2.74603c3.36597,0,4.73895,1.439,4.73895,4.827v5.86899c0,1.70502-.37695,2.923-1.10797,3.698-.72998.77499-1.948,1.15201-3.63098,1.15201m-.26599-12.77802h-2.21503c-.88501,0-1.52698.11102-1.771.62003s-.24402,1.01898-.24402,1.439v5.86899c0,.819.11102,1.35101.33203,1.59399.22198.24402.48798.37701.776.42102.28699.04401.59698.06598.90698.06598h2.21503c1.85999,0,2.03699-.68597,2.03699-2.08099v-5.86899c0-.642-.06604-1.10699-.19904-1.39502-.28796-.55298-.95197-.664-1.83795-.664"/><path class="f" d="m73.35608,120.55542c-1.57202-.11099-3.12201-.17697-4.62805-.17697h-.66498c-1.65997,0-2.05902.39798-2.05902,2.05899v5.86899c-.08899,1.948.797,2.05902,2.05902,2.08099h.66498c1.50604,0,3.05603-.06598,4.62805-.17697v2.63498c-1.19604.11099-2.06006.20001-2.591.24402-.53101.04398-1.12903.06598-1.81604.06598h-1.21796c-3.34406,0-4.69501-1.439-4.69501-4.827v-5.89099c0-3.388,1.35095-4.827,4.69501-4.827h1.21796c.354,0,.77502,0,1.26202.022.46497.022,1.52802.11099,3.14502.28799v2.63498Z"/><path class="f" d="m86.65399,123.94351c0,1.15201-.44403,1.78201-1.08502,2.414-.64197.63199-1.35101.952-1.35101.952l2.80402,5.71301h-3.24799l-2.38403-5.09302h-2.66394v5.09302h-2.96704v-15.28h6.93103c2.45801,0,3.96399,1.37299,3.96399,3.76498v2.436Zm-7.92798,1.21799h2.47998c1.23999,0,1.23999.04401,1.927-.39899.354-.24301.55298-.44299.55298-1.151v-1.79401c0-.952-.354-1.306-1.30597-1.306h-3.65399v4.64999Z"/><polygon class="f" points="102.82477 117.74301 114.73871 117.74301 114.73871 120.51102 110.26575 120.51102 110.26575 133.02304 107.29773 133.02304 107.29773 120.51102 102.82477 120.51102 102.82477 117.74301"/><rect class="f" x="116.93067" y="117.74301" width="2.96698" height="15.28"/><path class="f" d="m132.95776,120.55542c-1.57202-.11099-3.12201-.17697-4.62805-.17697h-.66498c-1.65997,0-2.05902.39798-2.05902,2.05899v5.86899c-.08899,1.948.797,2.05902,2.05902,2.08099h.66498c1.50604,0,3.05603-.06598,4.62805-.17697v2.63498c-1.19604.11099-2.05902.20001-2.591.24402-.53101.04398-1.12903.06598-1.81604.06598h-1.21796c-3.34406,0-4.69403-1.439-4.69403-4.827v-5.89099c0-3.388,1.34998-4.827,4.69403-4.827h1.21796c.35504,0,.77502,0,1.26202.022.46497.022,1.52802.11099,3.14502.28799v2.63498Z"/><path class="f" d="m145.44507,129.96692h-6.51105l-1.01801,3.056h-3.09998l4.724-13.93198c.27399-.806,1.03003-1.34802,1.88098-1.34802h1.55804c.85199,0,1.60901.54401,1.88098,1.35101l4.70398,13.92899h-3.078l-1.04095-3.056Zm-.92999-2.76801l-2.21503-6.68799h-.22101l-2.19202,6.68799h4.62805Z"/><path class="f" d="m96.74219,117.74292h-1.55798c-.85101,0-1.60706.54202-1.88104,1.34802l-4.724,13.93198h3.10004l1.01898-3.056h6.51001l1.04102,3.056h3.07794l-4.70294-13.92899c-.27301-.80701-1.03003-1.35101-1.88202-1.35101m-3.09198,9.45599l2.19196-6.68799h.22198l2.21405,6.68799h-4.62799Z"/><polygon class="f" points="99.83899 113.6846 96.70294 113.6846 94.35895 116.41461 97.23798 116.41461 99.83899 113.6846"/><path class="f" d="m56.07068,162.79602h16.59601v-16.59601h-16.59601v16.59601Zm15.79602-.80099h-14.995v-14.995h14.995v14.995Z"/><polygon class="f" points="62.07257 156.8385 58.97852 156.8385 59.75952 157.61853 56.52857 159.71252 56.52857 162.28751 59.29254 162.28751 61.29657 159.15552 62.07257 159.93253 62.07257 156.8385"/><polygon class="f" points="66.66516 152.17331 69.75916 152.17331 68.97815 151.39331 72.20911 149.29932 72.20911 146.72433 69.44513 146.72433 67.4411 149.85632 66.66516 149.07932 66.66516 152.17331"/><path class="f" d="m67.5694,154.49771c0,1.76801-1.43304,3.20001-3.20001,3.20001-1.76801,0-3.20099-1.43201-3.20099-3.20001s1.43298-3.19998,3.20099-3.19998c1.76697,0,3.20001,1.43201,3.20001,3.19998"/><path class="f" d="m42.84058,155.85034c-.23199.89499-.49402,1.548-.88702,1.93201-.37598.37198-.85199.59-1.56598.59h-.435l1.30103-5.04501h.43396c.71503,0,1.07904.21802,1.263.58902.19604.384.12103,1.03598-.10999,1.93399m-20.22498-1.58801c-.16901.65201-.69299.99802-1.84204.99802h-.21796l.49799-1.93301h.466c.96301,0,1.26398.28101,1.09601.935m20.09601-3.035h-5.26703l-1.35303,5.24103c-.13495-.60501-.599-1.078-1.44995-1.40002-1.03302-.397-2.53503-.65298-3.33704-.858-.43701-.11499-.66498-.25497-.57898-.58899.073-.28101.44897-.53699,1.164-.53699.57501,0,.914.19199.78101.76797h3.97699c.55597-2.15097-1.35803-2.86798-4.15399-2.86798-2.72699,0-4.67902.75299-5.54498,2.112-.18201-1.12302-1.21802-1.86902-3.27106-1.86902h-6.526l-2.38397,9.24402h4.44403l.80194-3.11099h1.46002c2.61102,0,4.284-.86902,5.047-2.22202.16504.604.69403,1.05402,1.73102,1.32501l2.95697.76898c.39301.10202.67303.28201.58405.62802-.10602.409-.61401.75497-1.26703.75497-.41998,0-.66998-.116-.79401-.29498-.12097-.19299-.11798-.448-.052-.70401h-4.25696c-.62103,2.40701,1.68695,3.09802,4.38995,3.09802,2.58203,0,4.70703-.62903,5.72302-2.08603l-.47498,1.84302h5.52997c3.45099,0,6.10199-1.728,6.823-4.51901.70599-2.73999-.21198-4.72501-4.70197-4.72501"/><path class="f" d="m7.14893,148.53143c-.18903.189-.25299.39999-.17902.57901.07104.17499.26404.28198.50104.28198h3.66901c.08496,0,.14496.022.17798.064.04602.05801.03699.15002.02197.21802l-2.10797,8.327c-.03699.341-.52301.70099-.948.70099h-2.74103c-.48895,0-.95599.37399-1.08496.87l-.56305,2.302c-.05096.23901-.00299.46402.13501.63501.05402.06699.12.117.19403.159h-.77399c-.211,0-.39301-.08099-.51202-.22598-.11902-.14603-.15997-.341-.117-.54602l.83099-3.32199c.09302-.43799.53302-.79501.98102-.79501l2.70996.00101c.49402,0,.98303-.39301,1.08801-.87399l1.50903-6.091c.01697-.08099.02795-.18201-.03101-.254-.04401-.05499-.11603-.08099-.22101-.08099h-4.28601c-.37598,0-.64502-.12802-.737-.35202-.09399-.22498.00903-.517.27399-.78198l6.32605-6.33899c.151-.15002.35297-.233.56995-.233.21503,0,.41705.082.57001.233l.17004.15698-5.42603,5.367Zm8.93103.86398h3.39294c.18103,0,.37805-.14798.45905-.34399.06696-.16299.03998-.323-.07605-.439l-5.758-5.67899c-.16498-.16501-.40198-.26001-.64899-.26001-.245,0-.47296.09201-.64099.26001l-.15802.15698-.172-.159c-.172-.168-.39996-.26199-.64301-.26199-.24396,0-.47296.09399-.64398.26498l-.12799.12903-.151-.13202c-.17102-.168-.40002-.26199-.64203-.26199-.245,0-.47498.095-.646.26599l-7.15198,7.12201c-.28101.32199-.35699.73801-.20001,1.086.15204.32999.48901.52798.90204.52798l5.04498.00201c.05402,0,.12396.009.16101.056.039.04999.02899.125.01495.181l-.995,3.95401c-.09399.43698-.53497.79199-.98395.79199h-2.69202c-.49402,0-.97803.388-1.078.86398l-1.10803,4.354c-.04999.237-.00195.46301.13702.63303.13898.172.34998.26599.59302.26599h2.341c.00397,0,.008.00101.013.00101h6.33099c.76495-.01102,1.48901-.69702,1.66101-1.30502l2.94696-11.65598c.07404-.28003.24402-.41702.51904-.41803"/><path class="f" d="m85.71155,154.49854v-4.414c0-.22098.00397-.224.22498-.224,1.45801-.00101,2.91699-.009,4.375.004.66504.005,1.32703.06702,1.95801.30701,1.14502.43701,1.87299,1.272,2.21503,2.42099.388,1.302.35498,2.61502-.13501,3.88901-.58801,1.52802-1.698,2.41602-3.34503,2.60202-.35699.04099-.716.05399-1.07501.05399h-3.95599c-.25995,0-.26196-.00201-.26196-.258v-4.38101m2.16602-.01401c0,.94101.00195,1.88303-.00305,2.82401,0,.14502.04303.19601.19202.19501.66998-.00699,1.341.00699,2.01001-.008.98297-.021,1.68597-.48599,2.06702-1.39001.409-.97198.39899-1.97897.17596-2.99197-.07996-.36401-.21497-.70801-.46497-.992-.40204-.457-.95001-.59201-1.52203-.612-.74896-.026-1.5-.00601-2.25098-.01501-.16602-.00198-.20801.05701-.20703.21402.00604.92499.00305,1.85098.00305,2.77597"/><path class="f" d="m102.18396,152.62781c-.30603,0-.61102-.00098-.91705,0-.08295.00101-.14996-.01599-.164-.112-.10199-.66599-.54095-1.01199-1.151-1.17099-.76398-.19901-1.52795-.202-2.271.103-.33197.13602-.57996.36401-.64899.73901-.05798.319.03601.57999.29803.77701.24695.18597.54199.25497.83295.32599.90601.22198,1.82404.384,2.73602.57999.573.12302,1.13702.27502,1.64301.58401.82501.504,1.13202,1.29898,1.04797,2.186-.112,1.177-.85498,1.85999-1.86896,2.30798-.578.255-1.19702.35101-1.828.39502-.81299.05798-1.61804.01398-2.41101-.168-.76001-.17502-1.45502-.48502-2.00299-1.06-.44702-.47-.67303-1.03302-.69702-1.68002-.005-.14099.047-.18799.18604-.18698.58899.00497,1.17896.004,1.76898.00198.10101-.00101.17499.01501.19501.13602.138.80798.67297,1.18799,1.43701,1.31998.67896.117,1.35498.099,2.026-.05099.30096-.06799.57898-.19098.79797-.423.427-.453.31799-1.10699-.23798-1.38599-.46002-.23099-.96301-.32199-1.46204-.423-.87701-.17599-1.76398-.30701-2.62-.57599-.31201-.09802-.62-.207-.89899-.383-.52301-.32703-.85498-.78802-.96899-1.39401-.17004-.89899.02496-1.69501.67902-2.36401.48596-.496,1.08099-.78799,1.74695-.93298,1.159-.25101,2.31799-.26199,3.46405.08499.54999.16699,1.05597.423,1.48895.80301.534.46799.79803,1.07401.87103,1.772.01501.142-.03302.203-.18604.198-.29498-.01001-.58997-.00302-.88495-.00302"/><path class="f" d="m83.91626,152.95032c-.29004,0-.58002-.00897-.86902.00302-.16901.008-.258-.04401-.31702-.211-.14099-.40601-.362-.76501-.73102-1.01001-.29596-.19699-.62799-.29599-.97699-.34299-.52899-.073-1.04797-.05002-1.54401.172-.73096.328-1.138.92499-1.34198,1.66901-.237.86697-.24402,1.745-.02301,2.61697.28699,1.13901,1.203,1.83801,2.38098,1.84702.58002.005,1.11902-.104,1.57904-.48102.341-.27899.53198-.65399.66699-1.05899.052-.15698.13202-.202.28998-.19901.58899.008,1.17902.00201,1.76904.00302.21899,0,.23297.01199.18195.215-.38995,1.54199-1.34998,2.564-2.87598,2.99899-1.237.353-2.48999.30801-3.69598-.15799-1.51099-.58401-2.354-1.73203-2.63702-3.30103-.17902-.99399-.146-1.98499.16101-2.95099.47302-1.49399,1.48199-2.47101,2.992-2.86899,1.43701-.379,2.86798-.29401,4.21503.37598.95197.47403,1.57697,1.25101,1.849,2.289.10297.39001.09399.392-.30103.392h-.77197Z"/><path class="f" d="m116.37769,154.45023c0-1.49698-.00098-2.995,0-4.492,0-.25.00397-.25497.24799-.25497,1.28699,0,2.573-.00702,3.85999.00299.69403.00601,1.362.13101,1.95905.522.474.31.79895.73199.95197,1.26898.255.897.24701,1.798-.047,2.68503-.26898.81299-.896,1.23599-1.68597,1.45898-.39404.11099-.79901.15701-1.20703.16101-.62701.008-1.255.00699-1.88196,0-.15503-.00101-.20203.04898-.20105.203.005.98898.00305,1.97897.00201,2.96799,0,.216-.01099.228-.22601.228-.51398.00101-1.02899.00101-1.54401,0-.216,0-.22797-.013-.22797-.22598-.00098-1.50803,0-3.01602,0-4.52502m1.99902-1.686c0,.41202.00098.82401,0,1.23602-.00104.08899.01099.16.12598.15799.66498-.013,1.33002.03601,1.99298-.03601.59003-.06497.966-.43298,1.06299-1.01599.026-.15399.02802-.30798.02704-.46298-.00201-.77902-.466-1.25702-1.24603-1.26901-.59497-.008-1.19.00101-1.78497-.005-.14703-.00198-.18201.05801-.17999.19101.00598.40201.00201.80301.00201,1.20398"/><path class="f" d="m108.65302,154.43674v-4.495c0-.23801.00104-.23801.24304-.23801,1.28198-.00101,2.56299-.005,3.84497.00198.51703.00302,1.02502.07101,1.508.27502.85004.35797,1.35303.99197,1.51599,1.89099.11603.63199.10199,1.26599-.02399,1.897-.203,1.01999-.84198,1.616-1.82501,1.87799-.38995.104-.78998.15201-1.19196.15601-.62201.00699-1.24506.008-1.867,0-.164-.00201-.21002.052-.20905.21201.00604.98398.00305,1.96899.00305,2.953-.00104.224-.01105.233-.23804.23398h-1.52802c-.224-.00098-.23199-.00998-.23199-.23898v-4.526m1.99805-1.66702c0,.40601.00098.81201,0,1.21902-.00104.09198.00598.172.13196.16898.664-.013,1.32904.03702,1.98999-.03598.539-.06.91602-.39902,1.03705-.927.07495-.328.06897-.65601-.01202-.98401-.086-.349-.29999-.58301-.62903-.71899-.185-.07599-.37799-.117-.578-.11801-.58398-.00299-1.16797.00201-1.75195-.00497-.15204-.00201-.19299.05698-.19.19897.00598.40002.00201.80103.00201,1.202"/><path class="f" d="m106.17108,155.80573c-.38,0-.76105-.004-1.14105.00201-.13098.00201-.18097-.04401-.17896-.17599.005-.444.005-.888,0-1.332-.00104-.125.047-.17001.16998-.16901.77197.00201,1.54297.00201,2.315,0,.12299-.00101.17102.04401.16998.16901-.005.44901-.00397.89801,0,1.34698.00104.117-.04498.16202-.16199.16-.39099-.00299-.78198-.00101-1.17297-.00101"/><path class="f" d="m139.56897,156.81021h-.29303v.45001h.29303c.12396,0,.22498-.10098.22498-.22501,0-.12399-.10101-.22501-.22498-.22501Z"/><path class="f" d="m142.95899,156.81021h-.29303v.45001h.29303c.12396,0,.22498-.10098.22498-.22501,0-.12399-.10101-.22501-.22498-.22501Z"/><path class="f" d="m147.65814,157.82333l-.78802.92099-.78198-.92001v1.63303h-1.14801v-3.57501h.95203l.98199,1.21701.98102-1.21701h.953v1.52701c.48596-1.138.75598-2.39102.75598-3.70801,0-5.216-4.229-9.44501-9.44501-9.44501-3.29602,0-6.19702,1.69-7.88599,4.24899.09497,1.46201.99396,2.74402,2.34399,3.18701v-3.81799h2.09802v3.832c1.42694-.42801,2.383-1.72101,2.40698-3.26401h2.01996c.11005,2.617-1.81696,4.944-4.42694,5.40302v5.612h-2.09802v-5.64902c-1.521-.31799-2.79901-1.25198-3.58801-2.53198-.20502.77399-.315,1.58698-.315,2.42499,0,5.216,4.22803,9.44501,9.44501,9.44501,3.08002,0,5.815-1.47501,7.53998-3.75702v-1.56699.00101h-.00098Zm-7.84698.39297h-.53503v1.242h-1.16699v-3.57498h1.70203c.64197,0,1.16699.52399,1.16699,1.16599s-.52502,1.16699-1.16699,1.16699Zm3.39001,0h-.53503v1.242h-1.16699v-3.57498h1.70203c.64197,0,1.16699.52399,1.16699,1.16599s-.52502,1.16699-1.16699,1.16699Z"/><path class="f" d="m54.01709,108.12753h-6.51105l-1.01801,3.056h-3.09998l4.724-13.93198c.27399-.806,1.03003-1.34802,1.88098-1.34802h1.55804c.85199,0,1.60901.54401,1.88098,1.35101l4.70398,13.92899h-3.078l-1.04095-3.056Zm-.92999-2.76801l-2.21405-6.68799h-.22198l-2.19202,6.68799h4.62805Z"/><polygon class="f" points="60.32001 95.90363 63.28699 95.90363 63.28699 108.41565 70.01898 108.41565 70.01898 111.18365 60.32001 111.18365 60.32001 95.90363"/><rect class="f" x="72.10669" y="95.90402" width="2.96698" height="15.28"/><path class="f" d="m87.85071,108.12753h-6.51105l-1.01801,3.056h-3.09998l4.724-13.93198c.27399-.806,1.03003-1.34802,1.88098-1.34802h1.55804c.85199,0,1.60901.54401,1.88098,1.35101l4.70398,13.92899h-3.078l-1.04095-3.056Zm-.92999-2.76801l-2.21503-6.68799h-.22101l-2.19202,6.68799h4.62805Z"/><path class="f" d="m105.40271,95.90363h2.96698v15.28003h-3.35199c-1.02405,0-1.95703-.58603-2.401-1.50803l-5.297-11.004h-.19904v12.51202h-2.96796v-15.28003h3.33398c1.02197,0,1.95398.58502,2.39801,1.505l5.31897,11.00702h.19904v-12.51202Z"/><path class="f" d="m116.15656,98.53891c-1.13702,0-2.05902.92203-2.05902,2.05902v5.86899c-.08899,1.94901.797,2.05902,2.05902,2.08099h.66394c1.50604,0,3.05603-.06598,4.62903-.177v2.63602c-1.66101.177-2.83502.26498-3.521.28699l-.133.465c.68597-.08798,1.72699.73102,1.68298,1.81601,0,1.573-1.04102,2.34799-3.14502,2.34799-.42096,0-.88599-.04498-1.35095-.133v-1.927c.42096.11102.84198.155,1.30701.155.50897,0,.95197-.155.95197-.487,0-.181-.10297-.34198-.61298-.42599-.52704-.08701-.87103-.60498-.745-1.12399l.16199-.664h-.22101c-3.34399,0-4.69501-1.44-4.69501-4.828v-5.89099c0-3.388,1.35101-4.827,4.69501-4.827h1.21802c.354,0,.77496,0,1.26196.022.46503.02197,1.52802.11099,3.14502.28799v2.63498c-1.573-.11099-3.12299-.177-4.62903-.177h-.66394Z"/><path class="f" d="m133.93646,108.12753h-6.51105l-1.01801,3.056h-3.09998l4.724-13.93198c.27399-.806,1.03003-1.34802,1.88098-1.34802h1.55804c.85199,0,1.60901.54401,1.88098,1.35101l4.70398,13.92899h-3.078l-1.04095-3.056Zm-.92999-2.76801l-2.21405-6.68799h-.22198l-2.19202,6.68799h4.62805Z"/><path class="f" d="m11.29846,108.12753h-6.51105l-1.01801,3.056H.66943l4.724-13.93198c.27399-.806,1.03003-1.34802,1.88098-1.34802h1.55804c.85199,0,1.60901.54401,1.88098,1.35101l4.70398,13.92899h-3.078l-1.04095-3.056Zm-.92999-2.76801l-2.21405-6.68799h-.22198l-2.19202,6.68799h4.62805Z"/><rect class="f" x="34.31073" y="102.16" width="6.08398" height="2.76801"/><g class="g"><rect class="h" x="-7.21646" y="-40.91057" width="163.86416" height="163.86416" transform="translate(-7.12289 64.84685) rotate(-45)"/></g></g></svg>