<svg class="logo" xmlns="http://www.w3.org/2000/svg" viewBox="0 0 108 36.7" style="enable-background:new 0 0 108 36.7" xml:space="preserve">
    <path style="fill:#fff" d="M23.7 22.4h10.8c-.8 4.5-2.7 7.9-5.8 10.5-3.1 2.5-6.9 3.8-11.5 3.8-5.3 0-9.5-1.5-12.6-4.5-3.1-3-4.6-7.1-4.6-12.3 0-2.6.4-5.1 1.3-7.5.9-2.3 2.1-4.5 3.7-6.3 1.8-2 3.8-3.5 6.2-4.5 2.4-1 5.1-1.5 8-1.5 4.8 0 8.6 1.2 11.3 3.6 2.7 2.4 4.2 5.9 4.6 10.6H24.6c0-1.8-.5-3.2-1.5-4.1-.9-1-2.3-1.5-3.9-1.5-2.4 0-4.4 1.1-5.9 3.3-1.5 2.2-2.3 5.1-2.3 8.7 0 2.5.5 4.3 1.4 5.5 1 1.2 2.4 1.9 4.3 1.9 1.6 0 3-.5 4.2-1.4 1.3-1.1 2.2-2.5 2.8-4.3M46.9 27h2.6c1.8 0 3.1-.1 4-.4.9-.3 1.7-.7 2.4-1.4.8-.8 1.5-2 2.1-3.6.5-1.6.8-3.3.8-5.1 0-2.6-.5-4.5-1.5-5.5-1-1.1-2.8-1.6-5.3-1.6h-2.5L46.9 27zm-12.4 8.6L39.7.9h14c3.5 0 6.3.4 8.2 1.2 1.9.8 3.6 2.1 5.1 4 1 1.3 1.7 2.8 2.2 4.6.5 1.8.8 3.7.8 5.8 0 6.2-1.7 10.9-5 14.2-3.3 3.3-8.1 4.9-14.3 4.9H34.5zM74.7.9h11.1l-3.2 20.5c0 .3-.1.5-.1.8v.8c0 1.6.4 2.7 1.2 3.6.8.8 2 1.2 3.5 1.2 1.9 0 3.3-.4 4.2-1.3.9-.9 1.5-2.5 1.9-4.9L96.5.9h11.1L104.4 22c-.8 5.1-2.5 8.8-5.2 11.1-2.7 2.3-6.6 3.4-11.9 3.4-5.2 0-9.1-1.1-11.8-3.4-2.7-2.3-4-5.6-4-9.9 0-.5 0-1.1.1-1.7 0-.6.1-1.3.3-2.2L74.7.9zM255.9" />
</svg>