<svg xmlns="http://www.w3.org/2000/svg" width="119" height="62" version="1.1" viewBox="0 0 119 62">
    <g fill="none" fill-rule="evenodd" stroke="none" stroke-width="1">
        <path fill="#006680" d="M115.1532,23.7253 C113.3382,21.9103 110.7872,20.9153 107.9562,20.9153 C105.1462,20.9153 102.6182,21.9103 100.7812,23.7253 C99.0092,25.4973 98.0152,28.0473 98.0152,30.8563 L98.0152,49.0753 L103.2452,49.0753 L103.2452,30.7483 C103.2452,27.8093 105.0172,26.0383 107.9562,26.0383 C110.9172,26.0383 112.7112,27.8093 112.7112,30.7483 L112.7112,49.0753 L117.9402,49.0753 L117.9402,30.8563 C117.9192,28.0473 116.9462,25.5183 115.1532,23.7253 Z M87.9232,30.7273 C87.9232,27.7883 86.1502,26.0163 83.1692,26.0163 C80.2512,26.0163 78.4572,27.7883 78.4572,30.7273 L78.4572,36.3463 L87.9232,36.3463 L87.9232,30.7273 Z M93.1522,49.0753 L87.9232,49.0753 L87.9232,41.4033 L78.4572,41.4033 L78.4572,49.0753 L73.2272,49.0753 L73.2272,30.8563 C73.2272,28.0473 74.2212,25.5183 75.9932,23.7253 C77.8082,21.9103 80.3592,20.9153 83.1692,20.9153 C86.0212,20.9153 88.5492,21.9103 90.3652,23.7253 C92.1362,25.4973 93.1312,28.0473 93.1312,30.8563 L93.1312,49.0753 L93.1522,49.0753 Z M59.5482,25.8653 C56.8242,25.8653 54.5552,28.1993 54.5552,31.0943 L54.5552,36.2813 L59.5482,36.2813 C62.3132,36.2813 64.5832,33.9473 64.5832,31.0943 C64.5612,28.1993 62.3132,25.8653 59.5482,25.8653 Z M59.9362,41.0793 L54.5552,41.0793 L54.5552,49.0753 L49.3252,49.0753 L49.3252,30.9863 C49.3252,25.4543 53.7562,20.9373 59.5482,20.9373 C65.3612,20.9373 69.7912,25.4543 69.7912,30.9863 C69.7912,36.7133 65.0802,41.0793 59.9362,41.0793 Z"/>
        <path fill="#3F9177" d="M13.7753,23.9196 C11.4413,29.9706 6.8593,25.1726 5.5193,23.5306 C9.6913,19.7276 13.2783,20.0076 13.7753,23.9196"/>
        <path fill="#3F9177" d="M5.1092,22.2556 C5.9732,20.2676 1.2192,18.1716 0.3982,20.7216 C0.2682,21.1096 0.8302,21.7156 0.8952,21.7796 C1.7162,22.6446 4.3962,23.8546 5.1092,22.2556"/>
        <path fill="#72BE44" d="M4.9359,24.633 C3.3369,22.04 -1.5041,24.698 0.4629,26.34 C1.6949,27.378 4.4389,26.772 4.9359,24.633"/>
        <path fill="#3F9177" d="M7.8319,27.2692 C6.3839,25.5192 3.2289,26.8152 3.6609,29.0842 C5.3689,30.3382 7.7459,29.5172 7.8319,27.2692"/>
        <path fill="#72BE44" d="M8.9339,19.965 C9.6689,18.862 5.0869,16.183 4.8499,18.647 C4.6769,20.397 8.0269,21.283 8.9339,19.965"/>
        <path fill="#3F9177" d="M31.7123,23.9196 C34.0463,29.9706 38.6283,25.1726 39.9673,23.5306 C35.7963,19.7276 32.2313,20.0076 31.7123,23.9196"/>
        <path fill="#3F9177" d="M40.3783,22.2556 C39.5143,20.2676 44.2683,18.1716 45.0893,20.7216 C45.2193,21.1096 44.6573,21.7156 44.5923,21.7796 C43.7713,22.6446 41.0913,23.8546 40.3783,22.2556"/>
        <path fill="#72BE44" d="M40.5082,25.0002 C42.7772,22.2122 46.9912,24.6982 45.0252,26.3402 C43.8142,27.3772 41.1342,26.8372 40.5082,25.0002"/>
        <path fill="#3F9177" d="M37.6551,27.2692 C39.1031,25.5192 42.2591,26.8152 41.8261,29.0842 C40.1191,30.3382 37.7411,29.5172 37.6551,27.2692"/>
        <path fill="#72BE44" d="M36.5746,19.965 C35.9266,18.193 40.4216,16.205 40.6586,18.647 C40.8326,20.397 37.2226,21.758 36.5746,19.965"/>
        <path fill="#006680" d="M22.6141,7.8845 C20.3231,10.0025 13.7321,16.9175 22.8081,19.6835 C28.4491,18.5605 28.5781,13.5895 22.6141,7.8845"/>
        <path fill="#006680" d="M24.4296,7.1496 C27.0656,7.8846 29.9836,1.0556 26.2016,0.1256 C25.6176,-0.0254 24.7966,0.8606 24.7106,0.9466 C23.4996,2.2436 22.6356,6.6526 24.4296,7.1496"/>
        <path fill="#006680" d="M20.388,7.236 C20.539,7.279 20.799,7.236 20.907,7.128 C24.516,4.534 20.172,-2.251 17.968,0.753 C16.606,2.676 17.643,6.523 20.388,7.236"/>
        <path fill="#006680" d="M17.3627,11.6447 C19.7827,9.3747 16.8217,4.4267 14.2937,5.7447 C12.1117,7.2577 14.0997,11.7307 17.3627,11.6447"/>
        <path fill="#006680" d="M28.1463,12.4875 C30.8043,13.2435 33.2463,6.5015 29.6593,6.3935 C27.0653,6.3285 25.4453,11.7095 28.1463,12.4875"/>
        <path fill="#3F9177" d="M14.8124,37.2966 C17.5144,35.7406 18.4644,33.9036 16.6704,31.5696 C13.6664,33.0616 14.2724,35.1796 14.8124,37.2966"/>
        <path fill="#006680" d="M10.9007,32.2614 C11.8737,31.3104 13.0407,31.0084 13.8827,29.6254 C10.5977,27.9394 7.4427,31.3324 6.5787,33.9474 C9.6907,35.3304 13.6237,33.8614 13.9907,29.9494 C13.1057,31.2244 12.0247,31.8294 10.9007,32.2614"/>
        <path fill="#3F9177" d="M30.0697,31.57 C28.2767,33.904 29.2487,35.741 31.9287,37.297 C32.4897,35.179 33.0957,33.061 30.0697,31.57"/>
        <path fill="#72BE44" d="M30.1131,19.2302 C26.6981,20.4622 25.2291,22.3852 26.8281,25.4322 C30.5891,24.3302 30.3291,21.7802 30.1131,19.2302"/>
        <path fill="#72BE44" d="M15.2665,18.3439 C15.3305,20.1379 15.3745,21.9749 18.1195,22.4279 C18.9615,20.1589 17.7735,18.9059 15.2665,18.3439"/>
        <path fill="#72BE44" d="M13.8617,17.739 C12.3057,16.961 11.5057,15.643 10.8147,14.26 C11.9387,15.556 13.0187,16.896 14.5747,17.868 C15.4607,12.877 12.4787,10.607 8.4377,9.051 C6.9677,14.022 9.6257,17.782 13.8617,17.739"/>
        <path fill="#72BE44" d="M31.6473,17.739 C33.2033,16.961 34.0033,15.643 34.6943,14.26 C33.5703,15.556 32.4903,16.896 30.9343,17.868 C30.0483,12.877 33.0303,10.586 37.0933,9.051 C38.5413,14.022 35.8833,17.782 31.6473,17.739"/>
        <path fill="#006680" d="M32.8793,29.6032 C33.7223,30.9862 34.8893,31.2892 35.8613,32.2402 C34.7373,31.8082 33.6573,31.2032 32.7713,29.9062 C33.1173,33.8182 37.0713,35.2872 40.1623,33.9042 C39.3193,31.3322 36.1643,27.9172 32.8793,29.6032"/>
        <path fill="#006680" d="M19.9559,45.8552 C15.7629,46.6112 11.8519,47.6492 8.3079,49.0752 C12.0889,48.3832 17.5139,47.5412 22.9809,47.5412 C28.4489,47.5412 33.8729,48.4052 37.6549,49.0752 C32.4039,46.5032 25.7049,45.7682 25.7049,45.7682 C24.8399,36.3892 27.2389,31.1162 30.8259,26.2102 C27.0009,25.5412 28.0599,30.5542 25.8769,30.1002 C22.8519,29.4522 26.3099,22.5802 24.7099,20.4182 C22.9809,21.3262 23.7379,25.6482 22.4409,26.9022 C21.0799,25.2592 21.7709,21.0882 19.5879,20.2032 C18.3569,22.2342 21.1019,25.9732 20.2579,27.4422 C18.3779,26.9232 17.6429,23.0552 15.5899,23.0552 C14.9849,25.2382 18.8319,27.1612 18.8969,28.9982 C17.5789,29.1922 16.2389,26.8802 14.3589,27.0102 C15.3309,29.2362 17.0599,29.2142 18.3779,31.0302 C20.9719,34.6382 20.0639,38.1182 19.9349,42.7212 L19.9349,45.8552 L19.9559,45.8552 Z"/>
        <g transform="translate(7 55.307)">
            <mask id="a" fill="#fff">
                <path d="M.875.2514 111.675.2514 111.675 6 .875 6z"/>
            </mask>
<!--            <path fill="#fff" d="M108.326,3.6664 L109.233,1.2024 L110.119,3.6664 L108.326,3.6664 Z M109.622,0.4024 L108.866,0.4024 L106.791,5.9134 L107.526,5.9134 L108.109,4.3134 L110.336,4.3134 L110.919,5.9134 L111.676,5.9134 L109.622,0.4024 Z M106.359,5.2654 L103.031,5.2654 L106.359,1.0294 L106.359,0.4024 L102.274,0.4024 L102.274,1.0514 L105.516,1.0514 L102.167,5.3084 L102.167,5.9134 L106.359,5.9134 L106.359,5.2654 Z M97.542,0.4024 L97.542,5.9134 L101.474,5.9134 L101.474,5.2654 L98.212,5.2654 L98.212,3.3634 L101.173,3.3634 L101.173,2.7154 L98.233,2.7154 L98.233,1.0514 L101.497,1.0514 L101.497,0.4024 L97.542,0.4024 Z M94.732,3.0824 C95.381,3.0824 95.812,2.6934 95.812,2.0664 C95.812,1.3534 95.381,1.0514 94.711,1.0514 L92.938,1.0514 L92.938,3.1044 L94.732,3.1044 L94.732,3.0824 Z M96.439,5.9134 L95.748,5.9134 C95.683,5.7624 95.639,5.5674 95.639,5.3084 L95.639,4.5524 C95.639,4.0124 95.359,3.7304 94.732,3.7304 L92.938,3.7304 L92.938,5.9134 L92.268,5.9134 L92.268,0.4024 L94.711,0.4024 C95.835,0.4024 96.505,1.0944 96.505,2.0664 C96.505,2.6494 96.223,3.1254 95.748,3.4064 C96.115,3.6224 96.332,4.0124 96.332,4.5734 L96.332,5.2654 C96.309,5.4374 96.375,5.7404 96.439,5.9134 Z M88.962,5.3524 C88.033,5.3524 87.514,4.7464 87.514,3.9254 L87.514,0.3814 L86.845,0.3814 L86.845,3.9254 C86.845,5.1574 87.687,6.0004 88.962,6.0004 C90.216,6.0004 91.08,5.1574 91.08,3.9254 L91.08,0.3814 L90.41,0.3814 L90.41,3.9254 C90.389,4.7464 89.891,5.3524 88.962,5.3524 Z M86.175,1.0294 L86.175,0.3814 L82.025,0.3814 L82.025,1.0294 L83.754,1.0294 L83.754,5.8924 L84.424,5.8924 L84.424,1.0294 L86.175,1.0294 Z M79.886,1.2244 L78.977,3.6874 L80.75,3.6874 L79.886,1.2244 Z M78.762,4.3134 L78.179,5.9134 L77.443,5.9134 L79.518,0.4024 L80.274,0.4024 L82.327,5.9134 L81.571,5.9134 L80.987,4.3134 L78.762,4.3134 Z M76.73,0.4024 L76.06,0.4024 L76.06,4.8764 L73.099,0.4024 L72.344,0.4024 L72.344,5.9134 L73.013,5.9134 L73.013,1.4184 L75.973,5.9134 L76.73,5.9134 L76.73,0.4024 Z M69.21,4.0334 L71.371,4.0334 L71.371,3.3854 L69.21,3.3854 L69.21,4.0334 Z M66.465,6.0004 C67.697,6.0004 68.54,5.4164 68.54,4.3364 C68.54,3.2764 67.783,2.9314 66.595,2.7154 C65.471,2.4994 65.212,2.2614 65.212,1.7854 C65.212,1.2674 65.6,0.8994 66.465,0.8994 C67.286,0.8994 67.74,1.3324 67.74,1.9794 L68.431,1.9794 C68.431,0.9214 67.676,0.2724 66.486,0.2724 C65.319,0.2724 64.563,0.8784 64.563,1.8294 C64.563,2.7794 65.255,3.1464 66.486,3.3634 C67.697,3.5794 67.913,3.8824 67.913,4.3574 C67.913,4.9834 67.459,5.3734 66.508,5.3734 C65.665,5.3734 65.103,4.9194 65.103,4.1854 L64.412,4.1854 C64.369,5.2654 65.19,6.0004 66.465,6.0004 Z M62.748,5.9134 L63.418,5.9134 L63.418,0.4024 L62.748,0.4024 L62.748,5.9134 Z M59.593,1.2244 L58.707,3.6874 L60.478,3.6874 L59.593,1.2244 Z M58.469,4.3134 L57.886,5.9134 L57.15,5.9134 L59.225,0.4024 L59.981,0.4024 L62.013,5.9134 L61.257,5.9134 L60.673,4.3134 L58.469,4.3134 Z M56.459,0.4024 L55.443,0.4024 L53.822,5.0494 L52.201,0.4024 L51.164,0.4024 L51.164,5.9134 L51.834,5.9134 L51.834,1.2884 L53.455,5.9134 L54.168,5.9134 L55.789,1.2884 L55.789,5.9134 L56.459,5.9134 L56.459,0.4024 Z M49.176,5.9134 L49.846,5.9134 L49.846,0.4024 L49.176,0.4024 L49.176,5.9134 Z M47.836,0.4024 L47.166,0.4024 L47.166,4.8764 L44.205,0.4024 L43.449,0.4024 L43.449,5.9134 L44.119,5.9134 L44.119,1.4184 L47.08,5.9134 L47.836,5.9134 L47.836,0.4024 Z M40.315,1.2244 L39.408,3.6874 L41.18,3.6874 L40.315,1.2244 Z M39.192,4.3134 L38.608,5.9134 L37.873,5.9134 L39.948,0.4024 L40.704,0.4024 L42.758,5.9134 L42.001,5.9134 L41.418,4.3134 L39.192,4.3134 Z M35.518,4.0334 L37.679,4.0334 L37.679,3.3854 L35.518,3.3854 L35.518,4.0334 Z M32.795,6.0004 C34.027,6.0004 34.869,5.4164 34.869,4.3364 C34.869,3.2764 34.113,2.9314 32.925,2.7154 C31.801,2.4994 31.541,2.2614 31.541,1.7854 C31.541,1.2674 31.93,0.8994 32.795,0.8994 C33.616,0.8994 34.048,1.3324 34.048,1.9794 L34.74,1.9794 C34.74,0.9214 33.983,0.2724 32.795,0.2724 C31.628,0.2724 30.871,0.8784 30.871,1.8294 C30.871,2.7794 31.563,3.1464 32.795,3.3634 C34.005,3.5794 34.221,3.8824 34.221,4.3574 C34.221,4.9834 33.767,5.3734 32.816,5.3734 C31.973,5.3734 31.412,4.9194 31.412,4.1854 L30.72,4.1854 C30.677,5.2654 31.52,6.0004 32.795,6.0004 Z M27.932,1.2244 L27.046,3.6664 L28.818,3.6664 L27.932,1.2244 Z M26.808,4.3134 L26.225,5.9134 L25.49,5.9134 L27.565,0.4024 L28.321,0.4024 L30.353,5.9134 L29.597,5.9134 L29.013,4.3134 L26.808,4.3134 Z M24.626,3.1254 C24.626,1.8514 23.718,0.8994 22.551,0.8994 C21.406,0.8994 20.476,1.8724 20.476,3.1254 C20.476,4.3794 21.406,5.3524 22.551,5.3524 C23.697,5.3524 24.626,4.3794 24.626,3.1254 Z M25.296,3.1254 C25.296,4.7254 24.064,6.0004 22.573,6.0004 C21.06,6.0004 19.828,4.7464 19.828,3.1254 C19.828,1.5264 21.06,0.2514 22.573,0.2514 C24.086,0.2514 25.296,1.4824 25.296,3.1254 Z M17.127,6.0004 C18.359,6.0004 19.201,5.4164 19.201,4.3364 C19.201,3.2764 18.445,2.9314 17.256,2.7154 C16.133,2.4994 15.873,2.2614 15.873,1.7854 C15.873,1.2674 16.263,0.8994 17.127,0.8994 C17.948,0.8994 18.38,1.3324 18.38,1.9794 L19.072,1.9794 C19.072,0.9214 18.315,0.2724 17.127,0.2724 C15.96,0.2724 15.203,0.8784 15.203,1.8294 C15.203,2.7794 15.895,3.1464 17.127,3.3634 C18.337,3.5794 18.553,3.8824 18.553,4.3574 C18.553,4.9834 18.099,5.3734 17.148,5.3734 C16.305,5.3734 15.743,4.9194 15.743,4.1854 L15.052,4.1854 C15.009,5.2654 15.852,6.0004 17.127,6.0004 Z M12.372,6.0004 C13.604,6.0004 14.447,5.4164 14.447,4.3364 C14.447,3.2764 13.691,2.9314 12.48,2.7154 C11.357,2.4994 11.097,2.2614 11.097,1.7854 C11.097,1.2674 11.486,0.8994 12.351,0.8994 C13.172,0.8994 13.604,1.3324 13.604,1.9794 L14.296,1.9794 C14.296,0.9214 13.539,0.2724 12.351,0.2724 C11.184,0.2724 10.427,0.8784 10.427,1.8294 C10.427,2.7794 11.119,3.1464 12.351,3.3634 C13.561,3.5794 13.777,3.8824 13.777,4.3574 C13.777,4.9834 13.323,5.3734 12.372,5.3734 C11.53,5.3734 10.968,4.9194 10.968,4.1854 L10.276,4.1854 C10.276,5.2654 11.097,6.0004 12.372,6.0004 Z M5.803,0.4024 L5.803,5.9134 L9.757,5.9134 L9.757,5.2654 L6.472,5.2654 L6.472,3.3634 L9.411,3.3634 L9.411,2.7154 L6.472,2.7154 L6.472,1.0514 L9.757,1.0514 L9.757,0.4024 L5.803,0.4024 Z M1.545,1.0294 L1.545,3.0824 L3.188,3.0824 C3.836,3.0824 4.29,2.7794 4.29,2.0664 C4.29,1.3534 3.836,1.0514 3.188,1.0514 L1.545,1.0514 L1.545,1.0294 Z M1.545,5.9134 L0.875,5.9134 L0.875,0.4024 L3.188,0.4024 C4.333,0.4024 4.96,1.0944 4.96,2.0664 C4.96,3.0394 4.311,3.7304 3.188,3.7304 L1.545,3.7304 L1.545,5.9134 Z" mask="url(#a)"/>-->
        </g>
    </g>
</svg>
