<?xml version="1.0" encoding="utf-8"?>
<!-- Generator: Adobe Illustrator 25.0.1, SVG Export Plug-In . SVG Version: 6.00 Build 0)  -->
<svg version="1.0" id="katman_1" xmlns="http://www.w3.org/2000/svg" xmlns:xlink="http://www.w3.org/1999/xlink" x="0px" y="0px"
	 viewBox="0 0 3466.7 2453.3" style="enable-background:new 0 0 3466.7 2453.3;" xml:space="preserve">
<style type="text/css">
	.st0{fill-rule:evenodd;clip-rule:evenodd;fill:#FFFFFF;}
	.st1{fill:#CC2229;}
	.st2{fill-rule:evenodd;clip-rule:evenodd;fill:#CC2229;}
</style>
<path class="st0" d="M593.6,1226C593.6,596.3,1104.3,87,1734,87c629.7,0,1139,509.3,1139,1139c1.4,629.7-509.3,1140.4-1139,1140.4
	C1104.3,2366.4,593.6,1855.7,593.6,1226L593.6,1226z"/>
<path class="st1" d="M654.5,1231.5L654.5,1231.5c0-297,120.4-566.1,315.1-761.1c194.8-194.9,463.9-315.7,761.5-315.7h0.1
	c297,0,566.2,120.7,761.1,315.6c194.9,194.9,315.6,464.1,315.6,761v0.1c0,297.6-120.7,566.8-315.7,761.6
	c-194.9,194.7-464,315.1-760.9,315.1h-0.1c-297.7,0-566.9-120.4-761.6-315.1C774.9,1798.4,654.5,1529.2,654.5,1231.5L654.5,1231.5
	L654.5,1231.5L654.5,1231.5z M690.5,1231.5v0.1c0,287.7,116.3,547.9,304.6,736.1c188.2,188.3,448.4,304.6,736.2,304.6h0.1
	c287.1,0,547.2-116.3,735.6-304.6c188.4-188.2,305-448.4,305-736.2v-0.1c0-287-116.7-547.2-305.1-735.6
	c-188.4-188.4-448.6-305.1-735.6-305.1h-0.1c-287.7,0-547.9,116.7-736.1,305C806.8,684.2,690.5,944.4,690.5,1231.5L690.5,1231.5z"/>
<path class="st2" d="M1046.2,1226c0-379.2,308.6-686.5,687.8-686.5c379.2,0,686.4,307.2,686.4,686.5s-307.2,687.8-686.4,687.8
	S1046.2,1605.2,1046.2,1226L1046.2,1226z"/>
<path class="st1" d="M963.1,1226L963.1,1226c0-212.5,86.1-405.2,225.5-544.8c139.4-139.6,332.1-226.1,545.3-226.1h0.1
	c212.5,0,405.3,86.5,544.8,226c139.5,139.6,226,332.2,226,544.8v0.1c0,213.2-86.5,405.9-226.1,545.4
	c-139.6,139.4-332.2,225.5-544.7,225.5h-0.1c-213.2,0-406-86.1-545.4-225.5c-139.4-139.4-225.5-332.1-225.5-545.3L963.1,1226
	L963.1,1226z M999.1,1225.9v0.1c0,203.3,82.1,387,214.9,519.8c132.9,132.9,316.6,215,519.9,215h0.1c202.7,0,386.4-82.1,519.4-214.9
	c133-132.8,215.4-316.6,215.4-519.9v-0.1c0-202.6-82.4-386.3-215.5-519.3c-133-133.1-316.8-215.5-519.4-215.5h-0.1
	c-203.3,0-387,82.4-519.9,215.4C1081.2,839.5,999.1,1023.3,999.1,1225.9z"/>
<path class="st0" d="M2023.3,1148.5c0,0-41.5,59.5,23.5,72c0,0,59.5,24.9,119-38.8c0,0,70.6-54,58.1-142.6c0,0-30.5-69.2-85.8-30.5
	C2138.1,1008.7,2075.9,1094.5,2023.3,1148.5L2023.3,1148.5z M1866.9,1073.7c-6.9,2.8-59.5,59.5,6.9,80.3c0,0,74.7,41.5,145.3-37.4
	c0,0,72-91.3,109.3-166.1c0,0,11.1-134.2-137-90c0,0-18,12.5-24.9,38.8C1966.5,899.4,1875.2,1072.4,1866.9,1073.7L1866.9,1073.7z
	 M1695.3,996.2c-9.7,19.4-41.5,83,48.4,92.7c0,0,84.4,5.5,135.7-77.5c0,0,33.2-52.6,51.2-124.6c0,0,4.2-16.6,0-49.8
	c0,0-6.9-51.2-23.5-99.6c0,0-9.7-33.2-49.8-30.5c0,0-69.2-12.5-76.1,60.9c0,0-24.9,106.6-31.8,131.5
	C1749.2,899.4,1705,978.2,1695.3,996.2L1695.3,996.2z M1570.7,733.3c0,0,45.7,92.7,171.6,29.1c0,0,44.3-37.4,36-83
	c-6.9-45.7-70.6-48.4-83-48.4c0,0-45.7,0-112.1,20.8c0,0-54,15.2-90,84.4c0,0-22.1,52.6,48.4,27.7L1570.7,733.3L1570.7,733.3z"/>
<path class="st2" d="M970.1,1855.7l-49.8-67.8c-11.1-15.2-15.2-29.1-13.8-41.5c1.4-12.5,9.7-23.5,22.1-33.2
	c13.8-9.7,26.3-12.5,40.1-9.7c13.8,1.4,26.3,11.1,38.8,27.7l15.2,22.1l49.8-34.6l29.1,40.1L970.1,1855.7z M996.4,1772.7l-6.9-9.7
	c-5.5-6.9-11.1-12.5-16.6-13.8c-5.5,0-9.7,0-13.8,2.8c-4.2,4.2-6.9,6.9-8.3,12.5c0,4.2,1.4,11.1,6.9,19.4l9.7,11.1L996.4,1772.7
	L996.4,1772.7z M927.2,1504.2l20.8,54l29.1-2.8l18,48.4l-174.4,1.4l-20.8-51.2l131.5-116.2l18,49.8L927.2,1504.2L927.2,1504.2z
	 M898.1,1526.3l-48.4,38.7l62.3-4.1L898.1,1526.3z M916.1,1360.2l-163.3,11.1l-5.5-84.4c-1.4-15.2-1.4-27.7,1.4-36
	c1.4-8.3,5.5-15.2,12.5-20.8c6.9-5.5,16.6-8.3,26.3-9.7c9.7,0,16.6,1.4,23.5,4.2c6.9,4.2,12.5,8.3,18,15.2c2.8,4.2,5.5,9.7,6.9,16.6
	c1.4-5.6,4.2-9.7,5.5-12.5c1.4-2.8,4.2-5.5,8.3-9.7c4.2-2.8,6.9-5.5,9.7-6.9l45.7-27.7l2.8,56.7l-47.1,30.4
	c-6.9,4.2-11.1,6.9-12.5,9.7c-1.4,4.2-2.8,8.3-2.8,12.5v5.5l66.4-5.5L916.1,1360.2L916.1,1360.2z M815.1,1315.9l-1.4-20.8
	c0-2.8-1.4-6.9-2.8-13.8c-1.4-2.8-2.8-5.5-5.5-6.9c-4.2-2.8-6.9-2.8-9.7-2.8c-5.5,0-9.7,1.4-12.5,5.5c-2.8,2.8-2.8,9.7-2.8,19.4
	l1.4,22.1L815.1,1315.9L815.1,1315.9z M750,1102.8l31.8-150.9l40.1,8.3l-11.1,51.2l120.4,24.9l-11.1,49.8l-120.4-26.3l-9.7,51.2
	L750,1102.8L750,1102.8z M823.4,841.2l22.2-45.7l148.1,69.2l-20.8,45.7L823.4,841.2L823.4,841.2z M906.4,683.5l44.3-59.5
	c9.7-11.1,18-19.4,27.7-24.9c8.3-4.2,16.6-6.9,26.3-6.9c9.7-1.4,19.4,1.4,29.1,4.2c10,4.2,19.3,9.8,27.7,16.6
	c13.8,11.1,23.5,20.8,29.1,29.1c5.5,9.7,8.3,18,9.7,27.7c0,9.7,0,18-4.2,26.3c-4.2,11.1-8.3,19.4-13.8,26.3l-45.7,60.9L906.4,683.5
	L906.4,683.5z M965.9,665.5l72,54l6.9-9.7c6.9-8.3,9.7-15.2,11.1-19.4c1.4-5.5,0-11.1-4.2-16.6c-2.8-5.5-9.7-12.5-19.4-19.4
	c-13.8-11.1-24.9-15.2-34.6-15.2c-8.3,1.4-16.6,6.9-23.5,16.6L965.9,665.5L965.9,665.5z M1141.7,538.1c-15.2-22.2-22.1-42.9-18-63.7
	s16.6-38.8,38.8-54c22.2-15.2,42.9-22.2,63.7-18c20.8,2.8,37.4,16.6,52.6,37.4c11.1,15.2,18,30.4,19.4,44.3
	c1.4,13.8,0,26.3-6.9,38.8c-5.5,12.5-15.2,24.9-30.5,34.6c-15.2,11.1-29.1,16.6-42.9,19.4c-13.8,2.8-26.3,0-40.1-5.5
	C1163.8,564.4,1152.8,553.4,1141.7,538.1z M1183.2,509.1c9.7,13.8,18,22.2,27.7,24.9c8.3,1.4,18,0,26.3-5.5
	c9.7-6.9,13.8-15.2,15.2-23.5c0-9.7-4.2-22.1-15.2-36c-8.3-12.5-18-20.8-26.3-22.2c-9.7-2.8-18-1.4-27.7,5.5
	c-8.3,5.5-12.5,12.5-13.8,22.2C1169.4,484.2,1173.5,495.2,1183.2,509.1L1183.2,509.1z M1569.3,363.8l48.4-6.9
	c1.4,8.3,4.2,13.8,6.9,18c5.5,5.5,13.8,8.3,23.5,6.9c6.9,0,12.5-2.8,16.6-5.5c2.8-4.2,4.2-8.3,4.2-12.5c0-4.2-2.8-8.3-6.9-11.1
	c-2.8-2.8-12.5-5.5-26.3-6.9c-22.1-2.8-38.8-8.3-48.4-16.6c-11.1-6.9-16.6-16.6-16.6-29.1c-1.4-8.3,0-16.6,4.2-24.9
	c4.2-8.3,11.1-13.8,20.8-19.4s22.2-8.3,40.1-9.7c20.8-2.8,36,0,48.4,6.9c11.1,6.9,19.4,19.4,22.1,36l-47.1,6.9
	c-1.4-8.3-5.5-12.5-9.7-15.2c-4.2-4.2-9.7-4.2-16.6-4.2c-5.5,0-9.7,2.8-12.5,5.5c-2.8,2.8-4.2,5.5-4.2,8.3c0,2.8,1.4,5.5,4.2,6.9
	c2.8,2.8,8.3,4.2,18,4.2c22.2,4.2,37.4,6.9,48.4,11.1c9.7,4.2,16.6,9.7,22.1,16.6c4.4,7.2,7.2,15.2,8.3,23.5
	c1.4,9.7-1.4,19.4-5.5,29.1c-5.5,9.7-12.5,16.6-23.5,22.2c-9.7,5.5-22.2,9.7-38.8,9.7c-27.7,2.8-47.1,0-58.1-9.7
	C1579,394.2,1572.1,380.4,1569.3,363.8L1569.3,363.8z M1817.1,326.4c5.6-26.3,16.6-44.3,34.6-56.7c16.6-11.1,38.8-15.2,65.1-9.7
	c26.3,5.5,45.7,16.6,58.1,33.2c11.1,18,13.9,38.8,9.7,65c-4.2,18-9.7,33.2-19.4,44.3c-8.3,11.1-19.4,18-31.8,22.2
	c-13.8,4.2-29.1,5.5-47,1.4c-15.6-2.3-30.4-8.5-42.9-18c-11.1-6.9-19.4-18-23.5-31.8C1814.3,362.4,1814.3,345.8,1817.1,326.4
	L1817.1,326.4z M1866.9,336.1c-2.8,16.6-2.8,29.1,2.8,37.4c4.2,8.3,12.5,13.8,22.1,15.2c11.1,2.8,19.4,0,26.3-5.5
	c8.3-5.5,13.9-18,16.6-36c2.8-15.2,1.4-26.3-2.8-34.6c-4.2-8.3-12.5-13.8-22.2-15.2c-11.1-1.4-19.4,0-26.3,5.5
	C1875.2,309.8,1871,320.9,1866.9,336.1L1866.9,336.1z M2179.7,463.4l31.8,31.8c-8.3,9.7-16.6,16.6-26.3,22.2
	c-9.7,4.2-19.4,5.5-30.5,4.2c-9.7,0-22.1-4.2-34.6-11.1c-15.2-8.3-27.7-16.6-34.6-26.3c-8.3-11.1-12.5-23.5-13.8-38.8
	c0-15.2,4.2-31.8,13.8-49.8c12.5-23.5,27.7-38.8,47.1-44.3c20.8-6.9,41.5-2.8,65,9.7c18,9.7,30.5,20.8,37.4,33.2
	c5.5,12.5,6.9,27.7,4.2,45.7l-44.3-11.1c1.4-5.5,1.4-9.7,1.4-12.5c0-5.5-2.8-9.7-5.6-12.5c-1.4-4.2-5.5-6.9-9.7-9.7
	c-11.1-5.5-20.8-5.5-30.5,0c-6.9,4.2-13.8,12.5-20.8,24.9c-8.3,16.6-12.4,29.1-9.7,37.4c1.4,8.3,6.9,15.2,15.2,19.4
	c8.3,4.2,16.6,5.5,23.5,2.8C2165.8,477.2,2172.7,471.7,2179.7,463.4L2179.7,463.4z M2361,474.5l38.8,34.6l-109.3,120.4l-38.8-33.2
	L2361,474.5L2361,474.5z M2437.1,761l-34.6-47.1l-26.3,9.7l-30.5-41.5l168.9-47.1l31.8,44.3L2450.9,826l-31.8-42.9L2437.1,761
	L2437.1,761z M2459.2,730.5l36-48.4l-58.1,19.4L2459.2,730.5z M2637.8,844l15.2,47l-116.2,40.1l26.3,74.7l-38.8,13.8l-41.5-123.2
	L2637.8,844z M2701.4,1073.7l6.9,51.2l-161.9,22.2l-6.9-49.8L2701.4,1073.7L2701.4,1073.7z M2607.3,1235.7l-1.4,48.4
	c-8.3,0-13.9,1.4-18,4.2c-6.9,5.5-11.1,12.5-12.4,22.1c0,6.9,1.4,12.5,4.1,16.6c2.8,4.2,6.9,6.9,11.1,6.9c4.1,0,8.3-1.4,11.1-4.1
	c4.2-4.2,8.3-12.5,12.4-24.9c6.9-22.1,15.2-37.4,23.5-45.7c9.7-8.3,19.4-12.5,33.2-11.1c8.3,0,15.2,2.8,22.2,8.3
	c6.9,5.5,12.4,13.8,16.6,23.5c2.8,11.1,4.2,24.9,2.8,41.5c-2.8,20.8-6.9,36-16.6,45.7c-8.3,11.1-20.8,16.6-38.8,16.6l1.4-47.1
	c8.3-1.4,13.8-2.8,16.6-6.9c4.2-4.2,6.9-9.7,6.9-16.6c1.4-5.6,0-9.7-2.8-13.8c-1.4-2.8-4.2-4.2-8.3-4.2c-2.8-1.4-5.5,0-6.9,2.8
	c-2.8,1.4-5.5,6.9-8.3,16.6c-5.5,20.8-12.4,36-18,45.7c-5.5,8.3-12.5,15.2-19.4,19.4c-8.3,2.8-16.6,5.6-24.9,4.2
	c-11.1-1.4-20.8-4.2-29.1-11.1c-8.3-6.9-13.8-15.2-18-26.3c-2.8-11.1-4.2-23.5-2.8-40.1c2.8-27.7,9.7-45.7,20.8-55.4
	C2576.9,1241.2,2590.7,1235.7,2607.3,1235.7L2607.3,1235.7z M2675.1,1509.7l-55.3,143.9l-37.4-13.9l19.4-48.4l-116.3-44.3l19.4-47.1
	l114.9,44.3l18-48.4L2675.1,1509.7L2675.1,1509.7z M2398.3,1750.5l33.2-47.1l-16.6-22.1l30.5-41.5l95.5,146.7l-31.8,44.3
	l-168.8-47.1l31.8-42.9L2398.3,1750.5L2398.3,1750.5z M2432.9,1763l58.1,19.4l-37.4-48.4L2432.9,1763z"/>
<path class="st0" d="M1316.1,928.4l123.2-125.9c0,0,56.7-13.8,143.9,2.8c0,0,73.3,5.5,112.1,0c0,0,74.7-8.3,37.4,59.5
	c0,0-44.3,84.4-182.7,88.6c0,0-73.3-20.8-51.2,16.6c0,0,6.9,48.4-9.7,72c0,0,38.8,65,41.5,78.9c0,0,9.7,23.5,47.1-5.5
	c0,0,51.2-5.5,113.5,56.7c0,0,138.4,146.7,19.4,330.8l20.8-12.5c0,0,16.6-13.8,22.2-49.8l-1.4,2.8c0,0,20.8-26.3,45.7-19.4
	c0,0-49.8-99.6-18-155c0,0,65.1,37.4,125.9,13.8c0,0,41.5-5.6,56.7,8.3c0,0,83,49.8,177.1,6.9c0,0,55.4-36,49.8,31.8
	c0,0-77.5,132.8-106.6,132.8l-6.9,24.9c0,0-8.3,36-40.2,87.2c0,0-58.1,69.2-106.6,69.2c0,0,22.2,41.5,31.8,99.6l13.8,135.6
	c0,0-199.3,120.4-527.3-2.8v-83c0,0,5.5-90,11.1-125.9c0,0-5.5-27.7,30.5-33.2l15.2-12.5c0,0,1.4-8.3-22.2-12.5h-38.8
	c0,0-12.5-1.4-19.4-22.1l-138.4-315.6C1285.6,1271.6,1313.3,956.1,1316.1,928.4L1316.1,928.4z"/>
<path class="st2" d="M1681,1929.9c-0.3-24.1-0.7-50.6-1-78.4c0,0-2.8-45.7-13.8,6.9c0,0-1.3,30.5-4.6,69.7
	C1668.2,1928.8,1674.7,1929.4,1681,1929.9L1681,1929.9z M1818.1,1926.4c-0.5-34.7-1.5-104.4-2.5-185.6c0,0-2.8-44.3-13.8,6.9
	c0,0-6.6,112.5-17.2,182.2C1795.8,1929,1807,1927.9,1818.1,1926.4L1818.1,1926.4z"/>
</svg>
