<?xml version="1.0" encoding="UTF-8" standalone="no"?>
<!-- Generator: Adobe Illustrator 25.0.0, SVG Export Plug-In . SVG Version: 6.00 Build 0)  -->
<svg xmlns:dc="http://purl.org/dc/elements/1.1/" xmlns:cc="http://creativecommons.org/ns#" xmlns:rdf="http://www.w3.org/1999/02/22-rdf-syntax-ns#" xmlns:svg="http://www.w3.org/2000/svg" xmlns="http://www.w3.org/2000/svg" xmlns:sodipodi="http://sodipodi.sourceforge.net/DTD/sodipodi-0.dtd" xmlns:inkscape="http://www.inkscape.org/namespaces/inkscape" version="1.1" id="Layer_1" x="0px" y="0px" viewBox="0 0 544.00002 191.99999" xml:space="preserve" sodipodi:docname="ECR logo.svg" width="544" height="192" inkscape:version="0.92.3 (2405546, 2018-03-11)"><metadata id="metadata1131"><rdf:RDF><cc:Work rdf:about=""><dc:format>image/svg+xml</dc:format><dc:type rdf:resource="http://purl.org/dc/dcmitype/StillImage"/><dc:title/></cc:Work></rdf:RDF></metadata><defs id="defs1129"/><sodipodi:namedview pagecolor="#ffffff" bordercolor="#666666" borderopacity="1" objecttolerance="10" gridtolerance="10" guidetolerance="10" inkscape:pageopacity="0" inkscape:pageshadow="2" inkscape:window-width="1920" inkscape:window-height="991" id="namedview1127" showgrid="false" inkscape:snap-page="true" fit-margin-top="0" fit-margin-left="0" fit-margin-right="0" fit-margin-bottom="0" inkscape:zoom="1.2691278" inkscape:cx="360.25997" inkscape:cy="39.442605" inkscape:window-x="-10" inkscape:window-y="-10" inkscape:window-maximized="1" inkscape:current-layer="Layer_1"/>
<style type="text/css" id="style1027">
	.st0{fill:#1866A5;}
	.st1{fill:#FFFFFF;}
</style>


<g id="g1102" transform="matrix(2,0,0,2,10.600006,10.699997)">
	<g id="g1032">
		<g id="g1030">
			<rect id="SVGID_1_" y="0" class="st0" width="85.300003" height="85.300003" x="0" style="fill:#1866a5"/>
		</g>
	</g>
	<path class="st0" d="M 99.4,27.6 V 13.1 h 9.1 v 3.6 h -5 v 1.8 h 4.9 v 3.6 h -4.9 V 24 h 5 v 3.6 z" id="path1034" inkscape:connector-curvature="0" style="fill:#1866a5"/>
	<path class="st0" d="M 110.4,22.2 V 13 h 4.1 v 9.1 c 0,1.2 0.6,1.9 1.9,1.9 1.3,0 1.9,-0.8 1.9,-1.9 V 13 h 4.1 v 9 c 0,3.6 -2.4,5.5 -6.1,5.5 -3.5,0.3 -5.9,-1.7 -5.9,-5.3 z" id="path1036" inkscape:connector-curvature="0" style="fill:#1866a5"/>
	<path class="st0" d="m 131.3,27.6 -1.7,-4.8 h -1 v 4.6 h -4.1 V 13.1 h 6.4 c 3,0 4.9,2.2 4.9,4.8 0,2.4 -1.2,3.6 -2.2,4.3 l 2.3,5.4 z m 0.2,-9.6 c 0,-0.9 -0.6,-1.3 -1.4,-1.3 h -1.7 v 2.6 h 1.7 c 0.8,0 1.4,-0.5 1.4,-1.3 z" id="path1038" inkscape:connector-curvature="0" style="fill:#1866a5"/>
	<path class="st0" d="m 136.7,20.4 c 0,-4.4 2.6,-7.5 6.7,-7.5 4.1,0 6.6,3.1 6.6,7.5 0,4.4 -2.6,7.5 -6.6,7.5 -4.2,-0.1 -6.7,-3.2 -6.7,-7.5 z m 9.1,0 c 0,-2.3 -0.9,-3.9 -2.4,-3.9 -1.5,0 -2.4,1.5 -2.4,3.9 0,2.2 0.9,3.9 2.4,3.9 1.5,-0.1 2.4,-1.8 2.4,-3.9 z" id="path1040" inkscape:connector-curvature="0" style="fill:#1866a5"/>
	<path class="st0" d="M 151.4,27.6 V 13.1 h 6.3 c 3.3,0 5,2.3 5,4.9 0,2.6 -1.7,4.9 -5,4.9 h -2.2 v 4.6 c 0,0.1 -4.1,0.1 -4.1,0.1 z m 7,-9.6 c 0,-0.9 -0.6,-1.3 -1.4,-1.3 h -1.7 v 2.6 h 1.7 c 0.9,0 1.4,-0.5 1.4,-1.3 z" id="path1042" inkscape:connector-curvature="0" style="fill:#1866a5"/>
	<path class="st0" d="M 164,27.6 V 13.1 h 9.1 v 3.6 h -5 v 1.8 h 4.9 v 3.6 h -4.9 V 24 h 5 v 3.6 z" id="path1044" inkscape:connector-curvature="0" style="fill:#1866a5"/>
	<path class="st0" d="m 182.7,27.6 -0.4,-1.8 h -3.9 l -0.4,1.8 h -4.4 l 4.3,-14.4 h 4.9 l 4.3,14.4 z m -2.4,-10.3 -1.2,4.8 h 2.2 z" id="path1046" inkscape:connector-curvature="0" style="fill:#1866a5"/>
	<path class="st0" d="M 195.8,27.6 191.9,21 v 6.6 h -4.1 V 13.1 h 4.1 l 3.6,6.2 v -6.2 h 4.1 v 14.4 h -3.8 z" id="path1048" inkscape:connector-curvature="0" style="fill:#1866a5"/>
	<path class="st0" d="m 98.8,40.7 c 0,-4.4 2.6,-7.5 6.7,-7.5 3.3,0 4.8,2.2 5.4,4.1 l -3.3,1.4 c -0.3,-1.2 -1,-1.9 -2.1,-1.9 -1.5,0 -2.4,1.5 -2.4,3.9 0,2.3 0.9,3.9 2.4,3.9 1,0 1.8,-0.9 2.1,-2.1 l 3.3,1.4 c -0.6,1.8 -2.1,4.3 -5.4,4.3 -4.1,0 -6.7,-3.1 -6.7,-7.5 z" id="path1050" inkscape:connector-curvature="0" style="fill:#1866a5"/>
	<path class="st0" d="m 111.6,40.7 c 0,-4.4 2.6,-7.5 6.7,-7.5 4.1,0 6.6,3.1 6.6,7.5 0,4.4 -2.6,7.5 -6.6,7.5 -4.2,0 -6.7,-3.1 -6.7,-7.5 z m 9,0 c 0,-2.3 -0.9,-3.9 -2.4,-3.9 -1.5,0 -2.4,1.5 -2.4,3.9 0,2.2 0.9,3.9 2.4,3.9 1.6,0 2.4,-1.7 2.4,-3.9 z" id="path1052" inkscape:connector-curvature="0" style="fill:#1866a5"/>
	<path class="st0" d="m 134.2,47.9 -3.9,-6.6 v 6.6 h -4.1 V 33.5 h 4.1 l 3.6,6.2 v -6.2 h 4.1 v 14.4 z" id="path1054" inkscape:connector-curvature="0" style="fill:#1866a5"/>
	<path class="st0" d="m 139.2,46.2 1.9,-3.2 c 0.9,0.9 2.2,1.5 3.6,1.5 0.8,0 1.3,-0.3 1.3,-0.8 0,-1.5 -6.4,-0.6 -6.4,-5.8 0,-2.3 1.8,-4.6 5.4,-4.6 1.9,0 3.6,0.6 4.9,1.7 l -1.8,3.1 c -0.9,-0.8 -2.1,-1.2 -3.2,-1.2 -0.8,0 -1.2,0.4 -1.2,0.8 0,1.5 6.4,0.9 6.4,5.8 0,2.8 -2.1,4.8 -5.4,4.8 -2.5,-0.1 -4.2,-0.9 -5.5,-2.1 z" id="path1056" inkscape:connector-curvature="0" style="fill:#1866a5"/>
	<path class="st0" d="M 151.6,47.9 V 33.5 h 9.1 v 3.6 h -5 v 1.8 h 4.9 v 3.6 h -4.9 v 1.9 h 5 V 48 Z" id="path1058" inkscape:connector-curvature="0" style="fill:#1866a5"/>
	<path class="st0" d="m 169.3,47.9 -1.7,-4.6 h -1 v 4.6 h -4.1 V 33.5 h 6.4 c 3,0 4.9,2.2 4.9,4.8 0,2.4 -1.2,3.6 -2.2,4.3 l 2.3,5.4 z m 0.2,-9.5 c 0,-0.9 -0.6,-1.3 -1.4,-1.3 h -1.7 v 2.6 h 1.7 c 0.8,0 1.4,-0.5 1.4,-1.3 z" id="path1060" inkscape:connector-curvature="0" style="fill:#1866a5"/>
	<path class="st0" d="m 178.1,47.9 -4.3,-14.4 h 4.4 l 2.3,9.7 2.3,-9.7 h 4.4 L 183,47.9 Z" id="path1062" inkscape:connector-curvature="0" style="fill:#1866a5"/>
	<path class="st0" d="m 195.2,47.9 -0.4,-1.8 h -3.9 l -0.4,1.8 h -4.4 l 4.3,-14.4 h 4.9 l 4.3,14.4 z m -2.4,-10.2 -1.2,4.8 h 2.2 z" id="path1064" inkscape:connector-curvature="0" style="fill:#1866a5"/>
	<path class="st0" d="M 201.7,47.9 V 37.1 h -3 v -3.6 h 10 v 3.6 h -3 v 10.8 c 0,0 -4,0 -4,0 z" id="path1066" inkscape:connector-curvature="0" style="fill:#1866a5"/>
	<path class="st0" d="M 210.2,47.9 V 33.5 h 4.1 v 14.4 z" id="path1068" inkscape:connector-curvature="0" style="fill:#1866a5"/>
	<path class="st0" d="m 219.4,47.9 -4.3,-14.4 h 4.4 l 2.3,9.7 2.3,-9.7 h 4.4 l -4.3,14.4 z" id="path1070" inkscape:connector-curvature="0" style="fill:#1866a5"/>
	<path class="st0" d="M 229.4,47.9 V 33.5 h 9.1 v 3.6 h -5 v 1.8 h 4.9 v 3.6 h -4.9 v 1.9 h 5 V 48 Z" id="path1072" inkscape:connector-curvature="0" style="fill:#1866a5"/>
	<path class="st0" d="m 239.3,46.2 1.9,-3.2 c 0.9,0.9 2.2,1.5 3.6,1.5 0.8,0 1.3,-0.3 1.3,-0.8 0,-1.5 -6.4,-0.6 -6.4,-5.8 0,-2.3 1.8,-4.6 5.4,-4.6 1.9,0 3.6,0.6 4.9,1.7 l -1.8,3.1 c -0.9,-0.8 -2.1,-1.2 -3.2,-1.2 -0.8,0 -1.2,0.4 -1.2,0.8 0,1.5 6.4,0.9 6.4,5.8 0,2.8 -2.1,4.8 -5.4,4.8 -2.5,-0.1 -4.2,-0.9 -5.5,-2.1 z" id="path1074" inkscape:connector-curvature="0" style="fill:#1866a5"/>
	<path class="st0" d="m 107.3,68.3 -0.4,-1.8 H 103 l -0.4,1.8 h -4.4 l 4.3,-14.4 h 4.9 l 4.3,14.4 z m -2.3,-10.2 -1.2,4.8 h 2.2 z" id="path1076" inkscape:connector-curvature="0" style="fill:#1866a5"/>
	<path class="st0" d="m 120.6,68.3 -3.9,-6.6 v 6.6 h -4.1 V 53.8 h 4.1 l 3.6,6.2 v -6.2 h 4.1 v 14.4 c 0,0.1 -3.8,0.1 -3.8,0.1 z" id="path1078" inkscape:connector-curvature="0" style="fill:#1866a5"/>
	<path class="st0" d="M 126.5,68.3 V 53.8 h 5.4 c 4.4,0 6.8,3 6.8,7.2 0,4.2 -2.4,7.2 -6.8,7.2 0,0.1 -5.4,0.1 -5.4,0.1 z m 8.1,-7.2 c 0,-2.4 -0.9,-3.6 -2.6,-3.6 h -1.4 v 7.3 h 1.4 c 1.6,-0.1 2.6,-1.4 2.6,-3.7 z" id="path1080" inkscape:connector-curvature="0" style="fill:#1866a5"/>
	<path class="st0" d="m 151.4,68.3 -1.7,-4.6 h -1 v 4.6 h -4.1 V 53.8 h 6.4 c 3,0 4.9,2.2 4.9,4.8 0,2.4 -1.2,3.6 -2.2,4.3 l 2.3,5.4 c 0,0 -4.6,0 -4.6,0 z m 0.2,-9.6 c 0,-0.9 -0.6,-1.3 -1.4,-1.3 h -1.7 V 60 h 1.7 c 0.9,0 1.4,-0.4 1.4,-1.3 z" id="path1082" inkscape:connector-curvature="0" style="fill:#1866a5"/>
	<path class="st0" d="M 157.4,68.3 V 53.8 h 9.1 v 3.6 h -5 v 1.8 h 4.9 v 3.5 h -4.9 v 1.9 h 5 v 3.6 h -9.1 z" id="path1084" inkscape:connector-curvature="0" style="fill:#1866a5"/>
	<path class="st0" d="M 168.4,68.3 V 53.8 h 9.1 v 3.6 h -5 v 1.8 h 4.9 v 3.5 h -4.9 v 5.5 h -4.1 z" id="path1086" inkscape:connector-curvature="0" style="fill:#1866a5"/>
	<path class="st0" d="m 178.4,61.1 c 0,-4.4 2.6,-7.5 6.7,-7.5 4.1,0 6.6,3.1 6.6,7.5 0,4.4 -2.6,7.5 -6.6,7.5 -4.1,-0.1 -6.7,-3 -6.7,-7.5 z m 9.2,0 c 0,-2.3 -0.9,-3.9 -2.4,-3.9 -1.5,0 -2.4,1.5 -2.4,3.9 0,2.2 0.9,3.9 2.4,3.9 1.4,-0.1 2.4,-1.6 2.4,-3.9 z" id="path1088" inkscape:connector-curvature="0" style="fill:#1866a5"/>
	<path class="st0" d="m 199.9,68.3 -1.7,-4.6 h -1 v 4.6 h -4.1 V 53.8 h 6.4 c 3,0 4.9,2.2 4.9,4.8 0,2.4 -1.2,3.6 -2.2,4.3 l 2.3,5.4 c 0.1,0 -4.6,0 -4.6,0 z m 0.3,-9.6 c 0,-0.9 -0.6,-1.3 -1.4,-1.3 h -1.7 V 60 h 1.7 c 0.7,0 1.4,-0.4 1.4,-1.3 z" id="path1090" inkscape:connector-curvature="0" style="fill:#1866a5"/>
	<path class="st0" d="m 216.9,68.3 v -7.7 l -2.7,7.7 h -1.5 l -2.6,-7.7 v 7.7 H 206 V 53.8 h 5.3 l 2.2,6.3 2.2,-6.3 h 5.3 v 14.4 c -0.1,0.1 -4.1,0.1 -4.1,0.1 z" id="path1092" inkscape:connector-curvature="0" style="fill:#1866a5"/>
	<path class="st0" d="M 223.1,68.3 V 53.8 h 4.1 v 14.4 c 0,0.1 -4.1,0.1 -4.1,0.1 z" id="path1094" inkscape:connector-curvature="0" style="fill:#1866a5"/>
	<path class="st0" d="m 228.3,66.6 1.9,-3.2 c 0.9,0.9 2.2,1.5 3.6,1.5 0.8,0 1.3,-0.3 1.3,-0.8 0,-1.5 -6.4,-0.6 -6.4,-5.8 0,-2.3 1.8,-4.6 5.4,-4.6 1.9,0 3.6,0.6 4.9,1.7 l -1.8,3.1 c -0.9,-0.8 -2.1,-1.2 -3.2,-1.2 -0.8,0 -1.2,0.4 -1.2,0.8 0,1.5 6.4,0.9 6.4,5.8 0,2.8 -2.1,4.8 -5.4,4.8 -2.5,-0.2 -4.3,-0.8 -5.5,-2.1 z" id="path1096" inkscape:connector-curvature="0" style="fill:#1866a5"/>
	<path class="st0" d="M 242.7,68.3 V 57.5 h -3 v -3.6 h 10 v 3.6 h -3 v 10.8 z" id="path1098" inkscape:connector-curvature="0" style="fill:#1866a5"/>
	<path class="st0" d="m 250,66.6 1.9,-3.2 c 0.9,0.9 2.2,1.5 3.6,1.5 0.8,0 1.3,-0.3 1.3,-0.8 0,-1.5 -6.4,-0.6 -6.4,-5.8 0,-2.3 1.8,-4.6 5.4,-4.6 1.9,0 3.6,0.6 4.9,1.7 l -1.8,3.1 c -0.9,-0.8 -2.1,-1.2 -3.2,-1.2 -0.8,0 -1.2,0.4 -1.2,0.8 0,1.5 6.4,0.9 6.4,5.8 0,2.8 -2.1,4.8 -5.4,4.8 -2.4,-0.2 -4.2,-0.8 -5.5,-2.1 z" id="path1100" inkscape:connector-curvature="0" style="fill:#1866a5"/>
</g><g id="g1124" transform="matrix(2,0,0,2,10.600006,10.699997)">
	<polygon class="st1" points="16.4,56.5 16.4,61.8 27.6,61.8 27.6,66 11.6,66 11.6,43.4 27.6,43.4 27.6,47.5 16.4,47.5 16.4,52.4 27.3,52.4 27.3,56.5 " id="polygon1104" style="fill:#ffffff"/>
	<path class="st1" d="m 30.3,54.7 c 0,-7 5.3,-11.7 11.9,-11.7 5.2,0 8,2.7 9.7,5.5 l -4.1,2.1 c -1,-1.8 -3.1,-3.3 -5.7,-3.3 -3.9,0 -7,3.1 -7,7.3 0,4.2 3,7.3 7,7.3 2.4,0 4.5,-1.4 5.5,-3.2 l 4.1,1.9 C 50,63.4 47.2,66.1 42,66.1 35.4,66.5 30.3,61.7 30.3,54.7" id="path1106" inkscape:connector-curvature="0" style="fill:#ffffff"/>
	<path class="st1" d="m 15.5,69.2 c 1.5,0 2.4,0.8 3,1.5 l -1.3,0.6 c -0.4,-0.5 -0.9,-0.9 -1.7,-0.9 -1.3,0 -2.3,1 -2.3,2.3 0,1.4 0.9,2.3 2.3,2.3 0.6,0 1.3,-0.3 1.5,-0.5 v -0.9 h -1.9 v -1.3 h 3.5 V 75 c -0.8,0.8 -1.8,1.4 -3.1,1.4 -2.1,0 -3.9,-1.4 -3.9,-3.7 0,-2.1 1.7,-3.5 3.9,-3.5" id="path1108" inkscape:connector-curvature="0" style="fill:#ffffff"/>
	<path class="st1" d="m 28.7,73.9 h -1.2 v 2.6 H 26 v -7.2 h 3.3 c 1.5,0 2.4,1 2.4,2.3 0,1.3 -0.8,1.9 -1.5,2.2 l 1.7,2.7 h -1.8 z m 0.5,-3.3 h -1.7 v 1.9 h 1.7 c 0.6,0 1,-0.4 1,-1 0.1,-0.5 -0.4,-0.9 -1,-0.9" id="path1110" inkscape:connector-curvature="0" style="fill:#ffffff"/>
	<path class="st1" d="m 42.9,69.2 c 2.2,0 3.7,1.5 3.7,3.7 0,2.2 -1.5,3.7 -3.7,3.7 -2.2,0 -3.7,-1.5 -3.7,-3.7 -0.2,-2.2 1.5,-3.7 3.7,-3.7 m 0,1.4 c -1.3,0 -2.2,1 -2.2,2.3 0,1.3 0.9,2.3 2.2,2.3 1.3,0 2.2,-1 2.2,-2.3 0,-1.3 -0.9,-2.3 -2.2,-2.3" id="path1112" inkscape:connector-curvature="0" style="fill:#ffffff"/>
	<path class="st1" d="m 53.6,69.3 h 1.5 v 4.3 c 0,1 0.5,1.7 1.7,1.7 1.2,0 1.7,-0.6 1.7,-1.7 V 69.3 H 60 v 4.4 c 0,1.8 -1,3 -3.2,3 -2.2,0 -3.2,-1.3 -3.2,-3 z" id="path1114" inkscape:connector-curvature="0" style="fill:#ffffff"/>
	<g id="g1122">
		<path class="st1" d="m 11.6,39.2 c 0,-16.9 13.7,-30.5 30.5,-30.5 16.8,0 30.5,13.7 30.5,30.5 h -6.2 c -0.6,-0.6 -2.2,-1.8 -3.2,-1.8 -1,0 -1.8,0.3 -3.2,0.1 C 58.6,37.4 59,37 57.9,36.9 56.7,36.8 55.2,36.8 54.8,36.6 54.5,36.5 53,35.7 53.4,34.9 53.8,34.3 54,34 54.2,33.2 c 0,-0.6 -0.8,-2.8 -1,-3.5 -0.3,-0.6 -0.4,-1.7 -0.3,-1.9 0.1,-0.4 0,-0.3 0.5,0 0.6,0.2 1.2,0.2 1.7,0.2 0.5,0 1.2,0.4 1.3,-0.5 0,-0.5 -0.1,-1 -0.3,-1.3 -0.1,-0.3 0,-0.1 0.1,-0.3 0.1,-0.1 0,-0.5 0,-0.5 0,0 0.6,-0.4 0.8,-0.8 0.1,-0.3 0.4,-0.8 0.5,-1 0.1,-0.3 0,-0.5 0.1,-0.6 0.1,0 0.8,-0.8 0.8,-1 -0.1,-0.3 -0.1,-1 -3,-2.2 C 54.8,19.4 54.6,19.3 54.5,19 54.4,18.7 54.1,18 53.2,17.7 52.7,17.6 52,17.3 51.8,17.2 51.5,17.1 51.2,16.8 51.3,16.7 51.4,16.4 51,15.9 51,15.9 c -0.1,-0.1 -0.1,-0.1 0.1,-0.5 0.1,-0.3 -0.8,-1.3 -1.4,-1.5 -0.5,-0.3 -0.9,-0.3 -1.5,0 -0.6,0.3 -0.1,-0.1 -1.2,-0.1 -1,0 -1.7,0.5 -2.7,1.5 -1,1 0,0.6 -1.4,1.3 -1.4,0.6 -3,3.5 -3.3,4 -0.4,0.4 -2.6,1.8 -2.2,5.7 -0.8,0.8 -0.5,1.5 -2.4,1.9 -3.2,0.9 -9.8,-2.1 -13.3,0.5 -2.7,1.9 -3.9,3.9 -4.4,10.6 0.1,-0.1 -5.7,-0.1 -5.7,-0.1 z" id="path1116" inkscape:connector-curvature="0" style="fill:#ffffff"/>
		<path class="st1" d="m 62.9,58 h -3.5 v 8.1 H 54.6 V 43.4 h 10.6 c 4.6,0 7.6,3.1 7.6,7.2 0,4 -2.4,6.2 -4.9,6.7 l 5,8.6 h -5.5 z m 1.5,-10.5 h -5 v 6.2 h 5 c 1.9,0 3.3,-1.2 3.3,-3.1 0.1,-1.8 -1.4,-3.1 -3.3,-3.1" id="path1118" inkscape:connector-curvature="0" style="fill:#ffffff"/>
		<path class="st1" d="m 67.8,69.3 h 3.3 c 1.5,0 2.4,1 2.4,2.3 0,1.3 -0.9,2.3 -2.4,2.3 h -1.8 v 2.6 h -1.5 z m 3.2,1.3 h -1.7 v 1.9 H 71 c 0.6,0 1,-0.4 1,-1 0,-0.5 -0.5,-0.9 -1,-0.9" id="path1120" inkscape:connector-curvature="0" style="fill:#ffffff"/>
	</g>
</g></svg>