<svg id="Layer_1" data-name="Layer 1" xmlns="http://www.w3.org/2000/svg" xmlns:xlink="http://www.w3.org/1999/xlink" width="358.60208" height="263.37" viewBox="0 0 358.60208 263.37"><defs><style>.cls-1{fill:none;}.cls-2{clip-path:url(#clip-path);}.cls-3{fill:#008200;}.cls-4{fill:#ffbe28;}</style><clipPath id="clip-path" transform="translate(-36.4335 -47.87271)"><rect class="cls-1" width="430.866" height="357.16501"/></clipPath></defs><title>GreensEFA logo-en</title><g class="cls-2"><path class="cls-3" d="M392.4707,149.85661a79.90807,79.90807,0,0,1-14.025,45.176h-70.32v-.024h-37.109v-18.269h37.109v-18.219h-37.109v-18.27h37.109v-18.915h-37.109v-18.269h106.337a80.11965,80.11965,0,0,1,15.117,46.79" transform="translate(-36.4335 -47.87271)"/><path class="cls-4" d="M163.08791,50.79361h0c0,.01-1.133,1.595-2.875,4.252-1.745,2.655-4.099,6.375-6.525,10.655a134.532,134.532,0,0,0-6.994,14.006,59.03553,59.03553,0,0,0-4.273,14.295,23.42773,23.42773,0,0,0,.855,11.037,17.618,17.618,0,0,0,4.287,6.783,19.01573,19.01573,0,0,0,4.749,3.418,13.89162,13.89162,0,0,0,2.253.94s1.055-.841,2.678-2.393a66.903,66.903,0,0,0,6.051-6.627,56.51986,56.51986,0,0,0,6.48-10.032,39.22466,39.22466,0,0,0,3.939-12.614,38.11336,38.11336,0,0,0-.712-12.952,50.58468,50.58468,0,0,0-3.758-10.74,57.51625,57.51625,0,0,0-4.175-7.323c-1.171-1.736-1.976-2.705-1.98-2.705" transform="translate(-36.4335 -47.87271)"/><path class="cls-4" d="M83.1646,150.49481c-.027.004-.05.008-.078.013a.20949.20949,0,0,0-.079.01.53946.53946,0,0,1-.076.009c-.029.004-.055.008-.084.014-5.135.818-10.505,1.982-15.701,3.267-5.188,1.293-10.201,2.705-14.617,4.018-4.414,1.31-8.235,2.531-11.047,3.431-2.805.906-4.606,1.49-4.976,1.542h-.069c0-.006-.004-.006-.004-.01a23.37717,23.37717,0,0,0,3.56,2.655,75.90947,75.90947,0,0,0,9.503,5.338,65.819,65.819,0,0,0,13.522,4.749,44.05922,44.05922,0,0,0,15.615.876.345.345,0,0,0,.065-.004.361.361,0,0,1,.065-.008c.017-.005.04-.005.063-.009.019-.006.042-.006.059-.01.046-.006.084-.013.124-.019.036,0,.078-.009.118-.013a1.122,1.122,0,0,1,.12-.014c.041-.009.077-.013.119-.019a48.13222,48.13222,0,0,0,7.441-1.608,51.597,51.597,0,0,0,6.595-2.495,55.46439,55.46439,0,0,0,5.703-3.048c1.749-1.07,3.34-2.172,4.771-3.254,1.434-1.083,2.701-2.144,3.804-3.123,1.096-.982,2.023-1.886,2.778-2.655.748-.767,1.325-1.402,1.71-1.844.393-.439.597-.691.61-.691a7.64085,7.64085,0,0,0-1.667-1.597,24.24413,24.24413,0,0,0-5.274-3.088,34.55373,34.55373,0,0,0-9.208-2.524,49.92824,49.92824,0,0,0-13.465.111" transform="translate(-36.4335 -47.87271)"/><path class="cls-4" d="M222.4639,118.04161c-.068.009-.137.017-.209.027-.069.009-.138.022-.212.032-.067.009-.136.019-.204.032-.074.01-.144.023-.21.031a48.252,48.252,0,0,0-14.108,4.288,55.97867,55.97867,0,0,0-10.482,6.545,59.24262,59.24262,0,0,0-6.549,6.001c-1.499,1.595-2.285,2.627-2.325,2.632a8.65767,8.65767,0,0,0,1.736,1.654,26.01274,26.01274,0,0,0,5.471,3.274,35.86144,35.86144,0,0,0,9.497,2.74,50.54735,50.54735,0,0,0,13.824.056,150.04477,150.04477,0,0,0,15.955-3.268c5.238-1.348,10.256-2.861,14.648-4.288,4.393-1.424,8.152-2.76,10.873-3.746,2.72-.992,4.4-1.627,4.629-1.66h.029v.004a24.0016,24.0016,0,0,0-3.649-2.806,80.10263,80.10263,0,0,0-9.637-5.585,66.38086,66.38086,0,0,0-13.588-4.971,42.54052,42.54052,0,0,0-15.489-.992" transform="translate(-36.4335 -47.87271)"/><path class="cls-4" d="M58.8577,118.00841h0v.009l.004.01.004.004a.0156.0156,0,0,1-.004-.01.01448.01448,0,0,1-.004-.009Zm.008.023c.082.183.713,1.631,1.869,3.807a73.677,73.677,0,0,0,5.046,8.134,56.15117,56.15117,0,0,0,8.112,9.173,35.378,35.378,0,0,0,11.07,6.906,29.37193,29.37193,0,0,0,4.112,1.211,31.366,31.366,0,0,0,4.1.602,34.59985,34.59985,0,0,0,4.023.092,38.03608,38.03608,0,0,0,3.883-.334c1.332-.177,2.619-.416,3.863-.694,1.244-.284,2.44-.606,3.573-.956,1.135-.351,2.213-.721,3.214-1.1,1.006-.38,1.936-.763,2.787-1.139.855-.374,1.623-.74,2.299-1.074.677-.338,1.257-.645,1.728-.904.475-.262.845-.472,1.097-.622.251-.151.387-.233.393-.233a13.39266,13.39266,0,0,0-.115-2.485,20.65444,20.65444,0,0,0-1.564-5.727,19.16109,19.16109,0,0,0-4.778-6.613,24.07758,24.07758,0,0,0-9.754-5.133,94.762,94.762,0,0,0-14.104-2.121c-4.963-.426-10.005-.607-14.527-.676-4.525-.068-8.538-.032-11.455-.009a29.63747,29.63747,0,0,1-4.872-.105" transform="translate(-36.4335 -47.87271)"/><path class="cls-4" d="M105.0117,79.54462c0,.004-.311,1.513-.649,3.981a90.63272,90.63272,0,0,0-.809,9.721,62.8767,62.8767,0,0,0,.744,12.175,30.73669,30.73669,0,0,0,4.037,11.326,18.88668,18.88668,0,0,0,6.06,6.005,23.14018,23.14018,0,0,0,7.17,2.851,32.03438,32.03438,0,0,0,6.856.74,37.08039,37.08039,0,0,0,5.118-.319c.307-.041.582-.083.824-.124s.448-.078.616-.11c.17-.031.298-.059.384-.076a.66975.66975,0,0,0,.133-.036,27.07135,27.07135,0,0,0,1.474-2.785,40.29026,40.29026,0,0,0,2.589-7.07,28.99356,28.99356,0,0,0,.978-9.411,19.51345,19.51345,0,0,0-3.355-9.781,30.2564,30.2564,0,0,0-8.67-7.746,64.38078,64.38078,0,0,0-10.663-5.242c-3.486-1.358-6.705-2.348-9.043-3.016-2.341-.667-3.804-1.014-3.794-1.083" transform="translate(-36.4335 -47.87271)"/><path class="cls-4" d="M241.248,80.8678c-2.419.33-5.055.777-7.812,1.385a88.54459,88.54459,0,0,0-8.542,2.344,72.22082,72.22082,0,0,0-8.722,3.52,57.26247,57.26247,0,0,0-8.369,4.912,63.24737,63.24737,0,0,0-11.746,10.256,54.85169,54.85169,0,0,0-6.91,9.662,45.15425,45.15425,0,0,0-3.267,7.18,23.30455,23.30455,0,0,0-.824,2.816,5.82062,5.82062,0,0,0,.759.105c.498.049,1.228.108,2.171.133.946.031,2.098.031,3.431-.038,1.336-.063,2.854-.191,4.527-.416,1.617-.219,3.376-.528,5.259-.96,1.883-.429,3.89-.982,5.988-1.686a66.26952,66.26952,0,0,0,6.566-2.605,71.12712,71.12712,0,0,0,6.993-3.707,93.04742,93.04742,0,0,0,13.543-10.176,138.29664,138.29664,0,0,0,10.852-10.929c3.067-3.441,5.526-6.516,7.218-8.738,1.69-2.222,2.614-3.588,2.614-3.607.009-.067-.342-.136-1.002-.181-.653-.046-1.618-.073-2.829-.056-1.215.019-2.682.078-4.349.201-1.669.124-3.532.311-5.549.585" transform="translate(-36.4335 -47.87271)"/><path class="cls-4" d="M217.9951,47.87271a54.36091,54.36091,0,0,0-4.542,3.039c-2.71,1.928-6.413,4.694-10.499,8.048a167.68656,167.68656,0,0,0-12.765,11.592,94.31409,94.31409,0,0,0-11.355,13.669,49.01568,49.01568,0,0,0-6.299,12.773,31.7818,31.7818,0,0,0-1.517,9.704,22.71668,22.71668,0,0,0,.865,6.174,11.58891,11.58891,0,0,0,.825,2.166c.006-.008,1.199-.407,3.183-1.288a70.1657,70.1657,0,0,0,7.927-4.155,71.39175,71.39175,0,0,0,10.266-7.556,63.247,63.247,0,0,0,10.183-11.485,70.54811,70.54811,0,0,0,7.395-14.35,98.95349,98.95349,0,0,0,4.13-13.81c.936-4.197,1.49-7.821,1.807-10.398.314-2.578.396-4.113.4-4.119v-.004Z" transform="translate(-36.4335 -47.87271)"/><path class="cls-4" d="M146.35789,179.13931h0c0,.01-1.078.832-2.733,2.345a67.78723,67.78723,0,0,0-6.189,6.485,56.12668,56.12668,0,0,0-6.649,9.858,38.2549,38.2549,0,0,0-4.118,12.455,36.54523,36.54523,0,0,0,.68,13.024,52.23539,52.23539,0,0,0,3.926,11.06,62.64507,62.64507,0,0,0,4.401,7.681c1.244,1.843,2.098,2.887,2.102,2.887.009,0,1.204-1.536,3.018-4.128,1.813-2.587,4.25-6.234,6.758-10.448a120.286,120.286,0,0,0,7.176-13.875,54.53332,54.53332,0,0,0,4.25-14.402,24.2247,24.2247,0,0,0-1.009-11.296,18.92785,18.92785,0,0,0-4.433-7.03,20.51254,20.51254,0,0,0-4.868-3.607,13.76019,13.76019,0,0,0-2.312-1.009" transform="translate(-36.4335 -47.87271)"/><path class="cls-4" d="M104.2798,172.23152c-1.615.214-3.365.515-5.234.931-1.869.412-3.857.942-5.942,1.61-2.083.662-4.263,1.467-6.522,2.44a75.07265,75.07265,0,0,0-6.964,3.44,110.31161,110.31161,0,0,0-13.998,9.485c-4.311,3.391-8.204,6.873-11.477,10.009-3.272,3.127-5.923,5.914-7.76,7.92-1.837,2.001-2.857,3.225-2.865,3.231-.009.082.488.188,1.411.274.93.086,2.276.164,3.958.182,1.687.02,3.707-.018,5.973-.15,2.272-.128,4.786-.352,7.461-.708,2.302-.311,4.725-.717,7.206-1.247,2.485-.535,5.032-1.195,7.579-1.997a67.27237,67.27237,0,0,0,7.607-2.898,56.70736,56.70736,0,0,0,7.291-3.939,61.44294,61.44294,0,0,0,12.124-9.699,52.47594,52.47594,0,0,0,7.17-9.314,43.034,43.034,0,0,0,3.424-7.006,24.87647,24.87647,0,0,0,.891-2.789,5.76449,5.76449,0,0,0-.799-.118c-.517-.055-1.284-.111-2.263-.138-.982-.026-2.18-.022-3.568.046-1.386.063-2.963.202-4.703.435m11.333-.225h0v0Z" transform="translate(-36.4335 -47.87271)"/><path class="cls-4" d="M127.9272,179.86c-.004.004-1.215.386-3.231,1.225a73.409,73.409,0,0,0-8.071,3.971,75.10649,75.10649,0,0,0-10.526,7.222,65.19785,65.19785,0,0,0-10.594,10.959,68.27,68.27,0,0,0-7.921,13.706,94.14026,94.14026,0,0,0-4.629,13.24,100.01323,100.01323,0,0,0-2.165,10.005c-.403,2.487-.536,3.971-.53,3.99l.003.004c.006,0,.006-.004.006-.004a46.31122,46.31122,0,0,0,4.899-2.743c2.874-1.735,6.773-4.246,11.059-7.321a146.88026,146.88026,0,0,0,13.365-10.755,83.33527,83.33527,0,0,0,11.809-13.047,46.7738,46.7738,0,0,0,6.552-12.49,30.28962,30.28962,0,0,0,1.633-9.607,22.00464,22.00464,0,0,0-.831-6.168,11.5434,11.5434,0,0,0-.828-2.187" transform="translate(-36.4335 -47.87271)"/><path class="cls-4" d="M199.7748,148.20251c-1.303.174-2.564.403-3.775.681-1.217.275-2.377.59-3.483.929-1.101.332-2.148.695-3.121,1.059-.972.372-1.879.746-2.701,1.112-.822.36-1.564.708-2.216,1.032-.655.325-1.218.616-1.677.868-.462.252-.824.458-1.076.604a4.401,4.401,0,0,1-.41.228,14.38313,14.38313,0,0,0,.164,2.565,21.9378,21.9378,0,0,0,1.715,5.931,21.37214,21.37214,0,0,0,5.059,6.98,26.9804,26.9804,0,0,0,10.192,5.712,102.52489,102.52489,0,0,0,14.642,2.879c5.147.681,10.361,1.12,15.044,1.413,4.686.296,8.836.453,11.858.567a33.86424,33.86424,0,0,1,5.062.328c-.101-.196-.831-1.805-2.151-4.218a89.93224,89.93224,0,0,0-5.641-9.012,66.40519,66.40519,0,0,0-8.794-10.141,38.20917,38.20917,0,0,0-11.616-7.628,30.85926,30.85926,0,0,0-4.402-1.385,32.39634,32.39634,0,0,0-4.354-.71,36.18937,36.18937,0,0,0-4.248-.131,38.414,38.414,0,0,0-4.071.337m45.277,32.888c0,.004,0,.01.004.01v.01l.006.002h.004l-.004-.002v-.006c0-.004-.006-.004-.006-.004,0-.006-.004-.006-.004-.01" transform="translate(-36.4335 -47.87271)"/><path class="cls-4" d="M167.3555,169.51772c-.2.029-.379.05-.534.079-.16.026-.294.045-.399.063-.109.019-.191.038-.246.045-.055.014-.082.019-.082.019,0,.01-.645,1.051-1.476,2.812a40.15469,40.15469,0,0,0-2.57,7.119,28.96523,28.96523,0,0,0-.877,9.573,20.82974,20.82974,0,0,0,3.615,10.157,35.37942,35.37942,0,0,0,9.173,8.468,77.68986,77.68986,0,0,0,11.334,6.185c3.707,1.677,7.135,2.961,9.629,3.848,2.495.89,4.064,1.381,4.06,1.463.004,0,.269-1.585.528-4.187a97.61351,97.61351,0,0,0,.471-10.27,69.58385,69.58385,0,0,0-1.232-12.907,35.25523,35.25523,0,0,0-4.566-12.101,21.42963,21.42963,0,0,0-6.801-6.728,25.591,25.591,0,0,0-7.834-3.149,34.29428,34.29428,0,0,0-7.226-.796,36.78622,36.78622,0,0,0-4.967.307" transform="translate(-36.4335 -47.87271)"/><path class="cls-3" d="M304.4736,234.028c-1.311,0-2.642-.032-4.237-.101l-.857-.041c-2.851-.146-5.716-.419-8.514-.811l-.363-.053c-27.523-3.967-51.21-19.279-64.986-42.01-.762-1.262-1.454-2.591-2.121-3.877l-.36-.69a2.12393,2.12393,0,0,1,3.765-1.967l.364.698c.637,1.226,1.295,2.494,1.987,3.636,13.112,21.639,35.695,36.221,61.958,40.006l.345.051c2.676.374,5.416.636,8.144.775l.817.04c1.536.066,2.809.096,4.01.096,1.151-.018,2.489-.029,4.057-.096l.816-.039c2.728-.14,5.469-.402,8.146-.776l.345-.051c26.087-3.76,48.544-18.173,61.698-39.576a2.09908,2.09908,0,0,1,.227-.53,76.2508,76.2508,0,0,0,11.072-39.408c0-30.582-18.237-58.135-47.594-71.906a2.12255,2.12255,0,0,1-.383-.232,90.38781,90.38781,0,0,0-29.369-7.899l-.313-.03c-1.377-.127-2.748-.225-4.072-.29l-.467-.019c-3.091-.134-5.31-.13-8.274,0l-.471.019c-1.326.065-2.696.163-4.073.29l-.215.021a90.49165,90.49165,0,0,0-29.829,8.078c-1.407.659-2.908,1.436-4.861,2.515a2.12406,2.12406,0,1,1-2.055-3.718c2.04-1.126,3.616-1.942,5.113-2.644a94.60545,94.60545,0,0,1,31.128-8.45l.328-.032c1.439-.133,2.87-.234,4.258-.302l.494-.02c3.196-.14,5.547-.136,8.64,0l.49.02c1.386.068,2.819.169,4.259.302l.235.022a94.7655,94.7655,0,0,1,31.218,8.459,2.13184,2.13184,0,0,1,.394.239c30.645,14.536,49.668,43.46,49.668,75.577a80.4864,80.4864,0,0,1-11.419,41.161,2.11146,2.11146,0,0,1-.235.547c-13.775,22.731-37.462,38.043-64.985,42.01l-.362.053c-2.8.392-5.665.665-8.516.812l-.856.04c-1.596.069-2.927.101-4.189.101" transform="translate(-36.4335 -47.87271)"/><path class="cls-3" d="M52.293,306.17171h1.228a.59523.59523,0,0,0,.614-.616v-7.395a4.17876,4.17876,0,0,1,1.016-2.977,3.55524,3.55524,0,0,1,2.722-1.079,3.34377,3.34377,0,0,1,2.67,1.068,4.36282,4.36282,0,0,1,.936,2.988v7.395a.60315.60315,0,0,0,.172.441.59511.59511,0,0,0,.444.175h1.226a.59835.59835,0,0,0,.442-.175.61233.61233,0,0,0,.168-.441v-7.554a6.405,6.405,0,0,0-1.414-4.338,4.95183,4.95183,0,0,0-3.977-1.643,5.80152,5.80152,0,0,0-2.627.533,5.71151,5.71151,0,0,0-1.856,1.522v-1.176a.59939.59939,0,0,0-.161-.451.6173.6173,0,0,0-.456-.158H52.293a.58743.58743,0,0,0-.616.609v12.656a.60955.60955,0,0,0,.175.441.5945.5945,0,0,0,.441.175m26.324,0h1.815a.54554.54554,0,0,0,.427-.175.623.623,0,0,0,.159-.441v-.879a.62217.62217,0,0,0-.159-.442.55576.55576,0,0,0-.427-.175H78.805a1.65435,1.65435,0,0,1-1.509-.69,3.92057,3.92057,0,0,1-.441-2.06v-6.965h3.313a.60878.60878,0,0,0,.438-.161.55551.55551,0,0,0,.173-.428v-.856a.58415.58415,0,0,0-.611-.609H76.855v-4.462a.59066.59066,0,0,0-.175-.441.58362.58362,0,0,0-.437-.175H75.067a.55823.55823,0,0,0-.427.175.6197.6197,0,0,0-.159.441v4.462H72.37a.56854.56854,0,0,0-.428.168.64136.64136,0,0,0-.159.441v.856a.59186.59186,0,0,0,.159.428.57539.57539,0,0,0,.428.161h2.111v7.153q0,4.6755,4.136,4.674m5.397,0H85.24a.59686.59686,0,0,0,.616-.616v-7.395a4.17209,4.17209,0,0,1,1.011-2.977,3.55453,3.55453,0,0,1,2.725-1.079,3.37077,3.37077,0,0,1,2.694,1.068,4.38292,4.38292,0,0,1,.936,2.988v7.395a.59379.59379,0,0,0,.175.441.57921.57921,0,0,0,.441.175h1.255a.59508.59508,0,0,0,.611-.616v-7.554a6.36669,6.36669,0,0,0-1.429-4.338,4.99719,4.99719,0,0,0-3.99-1.643,5.86292,5.86292,0,0,0-2.6.519,5.2228,5.2228,0,0,0-1.829,1.509v-6.22a.56267.56267,0,0,0-.616-.616H84.014a.625.625,0,0,0-.441.159.57983.57983,0,0,0-.175.457v17.727a.58625.58625,0,0,0,.175.441.5792.5792,0,0,0,.441.175m20.795.266a7.26809,7.26809,0,0,0,3.027-.6,5.86251,5.86251,0,0,0,2.045-1.428,2.368,2.368,0,0,0,.72-1.417.41809.41809,0,0,0-.175-.348.6463.6463,0,0,0-.412-.13h-1.177a1.1549,1.1549,0,0,0-.449.064,1.40128,1.40128,0,0,0-.377.387,4.39356,4.39356,0,0,1-1.189,1.03,3.79871,3.79871,0,0,1-2.04.492,3.1949,3.1949,0,0,1-2.619-1.226,4.9868,4.9868,0,0,1-1.068-2.967v-.239h9.267a.59668.59668,0,0,0,.616-.612v-.483a7.50948,7.50948,0,0,0-1.617-5.073,6.44164,6.44164,0,0,0-8.903-.16,6.98094,6.98094,0,0,0-1.792,4.593l-.023.883.023.909a6.98013,6.98013,0,0,0,1.792,4.628,5.73306,5.73306,0,0,0,4.351,1.697m-3.714-8.197v-.08a4.55356,4.55356,0,0,1,.989-3.041,3.36644,3.36644,0,0,1,2.725-1.176,3.40755,3.40755,0,0,1,2.721,1.176,4.47091,4.47091,0,0,1,1.017,3.041v.08Zm19.649,7.931h12.82a.69621.69621,0,0,0,.493-.189.62582.62582,0,0,0,.197-.478v-2.644a.68472.68472,0,0,0-.69-.696h-8.65v-3.469h7.846a.67105.67105,0,0,0,.494-.202.6553.6553,0,0,0,.202-.492v-2.431a.68974.68974,0,0,0-.696-.695h-7.846v-3.39h8.434a.68221.68221,0,0,0,.493-.188.60859.60859,0,0,0,.202-.479v-2.643a.69143.69143,0,0,0-.695-.695H120.744a.62172.62172,0,0,0-.478.203.70028.70028,0,0,0-.189.492v17.329a.64791.64791,0,0,0,.202.465.63947.63947,0,0,0,.465.202m20.96.266a5.05674,5.05674,0,0,0,4.434-1.95v1.017a.60935.60935,0,0,0,.202.478.68447.68447,0,0,0,.495.189h3.257a.62828.62828,0,0,0,.478-.202.66828.66828,0,0,0,.185-.465v-12.547a.67516.67516,0,0,0-.185-.485.65793.65793,0,0,0-.478-.182h-3.526a.68832.68832,0,0,0-.492.182.62959.62959,0,0,0-.204.485v7.286a2.58646,2.58646,0,0,1-.601,1.829,2.14754,2.14754,0,0,1-1.669.653q-2.214,0-2.214-2.482v-7.286a.63489.63489,0,0,0-.202-.485.69981.69981,0,0,0-.494-.182h-3.549a.67492.67492,0,0,0-.469.182.646.646,0,0,0-.198.485v7.445a6.36908,6.36908,0,0,0,1.444,4.462,4.89266,4.89266,0,0,0,3.786,1.573m12.496-.266h3.526a.67263.67263,0,0,0,.492-.189.62627.62627,0,0,0,.202-.478v-6.729a2.23855,2.23855,0,0,1,.575-1.653,2.17528,2.17528,0,0,1,1.64-.589h2.698a.6361.6361,0,0,0,.479-.202.66606.66606,0,0,0,.188-.465v-2.909a.66922.66922,0,0,0-.188-.485.65875.65875,0,0,0-.479-.182H162.13a5.52329,5.52329,0,0,0-2.229.435,5.18222,5.18222,0,0,0-1.748,1.269v-1.014a.67828.67828,0,0,0-.696-.69H154.2a.63843.63843,0,0,0-.481.195.71076.71076,0,0,0-.186.495v12.524a.62493.62493,0,0,0,.202.465.63293.63293,0,0,0,.465.202m17.943.266a7.67027,7.67027,0,0,0,5.165-1.559,6.01585,6.01585,0,0,0,1.96-4.448c.038-.465.057-.864.057-1.203,0-.337-.019-.738-.057-1.199a5.95269,5.95269,0,0,0-2.011-4.418,9.02245,9.02245,0,0,0-10.23,0,5.96257,5.96257,0,0,0-2.01,4.418q-.027.345-.028,1.199c0,.569.01.973.028,1.203a6.0305,6.0305,0,0,0,1.96,4.448,7.67311,7.67311,0,0,0,5.166,1.559m0-3.365a1.93365,1.93365,0,0,1-1.627-.68,3.70663,3.70663,0,0,1-.616-2.098l-.027-1.067.027-1.067a3.71711,3.71711,0,0,1,.616-2.082,2.24852,2.24852,0,0,1,3.253,0,3.717,3.717,0,0,1,.616,2.082c.017.179.028.535.028,1.067,0,.536-.011.895-.028,1.067a3.70655,3.70655,0,0,1-.616,2.098,1.92785,1.92785,0,0,1-1.626.68m10.145,8.17h3.445a.64338.64338,0,0,0,.667-.667v-5.899a4.474,4.474,0,0,0,3.873,1.761,5.20515,5.20515,0,0,0,4.058-1.654,6.95022,6.95022,0,0,0,1.602-4.54c.014-.249.024-.588.024-1.016,0-.427-.01-.757-.024-.987a6.98029,6.98029,0,0,0-1.589-4.606,5.252,5.252,0,0,0-4.071-1.614,4.89044,4.89044,0,0,0-4.142,1.896v-.959a.65718.65718,0,0,0-.188-.485.646.646,0,0,0-.479-.182h-3.176a.71252.71252,0,0,0-.495.182.6497.6497,0,0,0-.198.485v17.618a.62577.62577,0,0,0,.198.479.6909.6909,0,0,0,.495.188m6.433-8.517a2.093,2.093,0,0,1-1.695-.682,2.83081,2.83081,0,0,1-.626-1.719c-.02-.231-.027-.561-.027-.989,0-.445.007-.785.027-1.015a3.246,3.246,0,0,1,.616-1.857,2.00631,2.00631,0,0,1,1.705-.733,1.97811,1.97811,0,0,1,1.721.711,3.62224,3.62224,0,0,1,.602,1.96,11.4138,11.4138,0,0,1,0,1.654,3.65324,3.65324,0,0,1-.602,1.963,1.98919,1.98919,0,0,1-1.721.707m16.049,3.712a8.80091,8.80091,0,0,0,3.563-.667,6.18712,6.18712,0,0,0,2.293-1.603,2.71415,2.71415,0,0,0,.791-1.626.44765.44765,0,0,0-.174-.361.621.621,0,0,0-.414-.145h-3.496a1.19,1.19,0,0,0-.472.065,1.428,1.428,0,0,0-.384.333,3.4888,3.4888,0,0,1-.734.653,1.85869,1.85869,0,0,1-1.03.256,1.76225,1.76225,0,0,1-1.518-.735,3.353,3.353,0,0,1-.564-1.936v-.16h8.467a.67985.67985,0,0,0,.69-.696v-.669a8.27091,8.27091,0,0,0-.785-3.671,5.79228,5.79228,0,0,0-2.377-2.532,7.59709,7.59709,0,0,0-3.883-.923,7.00888,7.00888,0,0,0-5.049,1.788,6.89087,6.89087,0,0,0-1.975,4.967v.828a6.79422,6.79422,0,0,0,1.923,5.086,7.21124,7.21124,0,0,0,5.128,1.748m-2.139-8.648v-.057a3.16416,3.16416,0,0,1,.55-1.988,1.8558,1.8558,0,0,1,1.562-.706,1.895,1.895,0,0,1,1.575.706,3.11534,3.11534,0,0,1,.559,1.988v.057Zm15.49,8.648a5.48685,5.48685,0,0,0,2.481-.52,4.29867,4.29867,0,0,0,1.626-1.35v.937a.69091.69091,0,0,0,.669.667h3.286a.626.626,0,0,0,.479-.202.6508.6508,0,0,0,.189-.465v-8.092a5.07252,5.07252,0,0,0-1.604-3.939,7.13856,7.13856,0,0,0-4.913-1.453,8.47122,8.47122,0,0,0-3.498.64,5.48078,5.48078,0,0,0-2.109,1.536,2.9488,2.9488,0,0,0-.72,1.613.47648.47648,0,0,0,.145.415.59758.59758,0,0,0,.442.174h3.097a.30476.30476,0,0,0,.265-.188,3.13374,3.13374,0,0,0,.616-.422,4.77022,4.77022,0,0,1,.813-.565,1.96171,1.96171,0,0,1,.898-.185,1.75319,1.75319,0,0,1,1.359.451,2.1588,2.1588,0,0,1,.399,1.444v.32l-3.31.507a9.27811,9.27811,0,0,0-4.151,1.561,3.5315,3.5315,0,0,0-1.509,2.953,3.64194,3.64194,0,0,0,.654,2.105,4.40837,4.40837,0,0,0,1.815,1.509,5.95287,5.95287,0,0,0,2.581.549m1.334-3.149a2.17212,2.17212,0,0,1-1.297-.376,1.15718,1.15718,0,0,1-.521-.987c0-.785.745-1.315,2.242-1.601l2.22-.373v.319a3.14983,3.14983,0,0,1-.735,2.244,2.52564,2.52564,0,0,1-1.909.774m10.703,2.883h3.549a.63594.63594,0,0,0,.485-.202.661.661,0,0,0,.182-.465v-7.293a2.57527,2.57527,0,0,1,.616-1.827,2.20507,2.20507,0,0,1,1.684-.654,2.13612,2.13612,0,0,1,1.67.644,2.66479,2.66479,0,0,1,.572,1.837v7.293a.60935.60935,0,0,0,.202.478.68448.68448,0,0,0,.495.189h3.547a.62285.62285,0,0,0,.481-.202.654.654,0,0,0,.188-.465v-7.452a7.25123,7.25123,0,0,0-.682-3.281,4.81237,4.81237,0,0,0-1.867-2.06,5.31726,5.31726,0,0,0-2.711-.691,6.09217,6.09217,0,0,0-2.605.533,5.193,5.193,0,0,0-1.851,1.414v-1.01a.67072.67072,0,0,0-.19-.485.65872.65872,0,0,0-.479-.182h-3.286a.66032.66032,0,0,0-.465.182.63844.63844,0,0,0-.202.485v12.547a.691.691,0,0,0,.667.667m22.615,0h3.846a.632.632,0,0,0,.479-.202.66729.66729,0,0,0,.184-.465v-5.769h3.045a8.79638,8.79638,0,0,0,5.448-1.509,5.35872,5.35872,0,0,0,1.977-4.551,5.56139,5.56139,0,0,0-1.977-4.621,8.54244,8.54244,0,0,0-5.448-1.574h-7.554a.6087.6087,0,0,0-.478.203.683.683,0,0,0-.194.492v17.329a.65008.65008,0,0,0,.204.465.63149.63149,0,0,0,.468.202m4.435-10.254v-4.591h2.988a2.26052,2.26052,0,0,1,1.772.638,2.43987,2.43987,0,0,1,.579,1.683,2.19616,2.19616,0,0,1-.63,1.698,2.46277,2.46277,0,0,1-1.721.572Zm16.333,10.52a5.4588,5.4588,0,0,0,2.482-.52,4.2592,4.2592,0,0,0,1.63-1.35v.937a.64472.64472,0,0,0,.199.465.65372.65372,0,0,0,.47.202h3.282a.63671.63671,0,0,0,.484-.202.67086.67086,0,0,0,.183-.465v-8.092a5.07178,5.07178,0,0,0-1.598-3.939,7.14441,7.14441,0,0,0-4.912-1.453,8.447,8.447,0,0,0-3.499.64,5.44256,5.44256,0,0,0-2.109,1.536,2.86354,2.86354,0,0,0-.72,1.613.47779.47779,0,0,0,.147.415.58089.58089,0,0,0,.436.174h3.097a.308.308,0,0,0,.27-.188,3.15985,3.15985,0,0,0,.615-.422,4.73026,4.73026,0,0,1,.813-.565,1.95261,1.95261,0,0,1,.892-.185,1.75527,1.75527,0,0,1,1.364.451,2.1421,2.1421,0,0,1,.401,1.444v.32l-3.311.507a9.29248,9.29248,0,0,0-4.151,1.561,3.5315,3.5315,0,0,0-1.509,2.953,3.66308,3.66308,0,0,0,.653,2.105,4.38933,4.38933,0,0,0,1.815,1.509,5.95881,5.95881,0,0,0,2.576.549m1.335-3.149a2.15116,2.15116,0,0,1-1.291-.376,1.15344,1.15344,0,0,1-.522-.987c0-.785.748-1.315,2.243-1.601l2.213-.373v.319a3.1492,3.1492,0,0,1-.733,2.244,2.51419,2.51419,0,0,1-1.91.774m10.708,2.883h3.521a.708.708,0,0,0,.5-.189.6301.6301,0,0,0,.198-.478v-6.729a2.262,2.262,0,0,1,.572-1.653,2.19054,2.19054,0,0,1,1.647-.589h2.691a.62759.62759,0,0,0,.48-.202.65834.65834,0,0,0,.189-.465v-2.909a.66184.66184,0,0,0-.189-.485.65.65,0,0,0-.48-.182h-1.198a5.5338,5.5338,0,0,0-2.234.435,5.1821,5.1821,0,0,0-1.748,1.269v-1.014a.69776.69776,0,0,0-.196-.495.68861.68861,0,0,0-.494-.195h-3.259a.625.625,0,0,0-.479.195.70362.70362,0,0,0-.188.495v12.524a.63981.63981,0,0,0,.198.465.6482.6482,0,0,0,.469.202m12.068,0h3.337a.61421.61421,0,0,0,.479-.202.64563.64563,0,0,0,.188-.465v-17.625a.64344.64344,0,0,0-.667-.667h-3.337a.70514.70514,0,0,0-.495.188.64363.64363,0,0,0-.201.479v17.625a.629.629,0,0,0,.201.478.68452.68452,0,0,0,.495.189m7.45-15.804h3.337a.69726.69726,0,0,0,.495-.202.67385.67385,0,0,0,.196-.495v-2.482a.67983.67983,0,0,0-.691-.694h-3.337a.63508.63508,0,0,0-.469.202.66641.66641,0,0,0-.198.492v2.482a.6934.6934,0,0,0,.184.495.64385.64385,0,0,0,.483.202m0,15.804h3.337a.70271.70271,0,0,0,.495-.189.625.625,0,0,0,.196-.478v-12.547a.64807.64807,0,0,0-.196-.485.71948.71948,0,0,0-.495-.182h-3.337a.67672.67672,0,0,0-.469.182.646.646,0,0,0-.198.485v12.547a.63981.63981,0,0,0,.198.465.64657.64657,0,0,0,.469.202m11.001.266a5.49991,5.49991,0,0,0,2.482-.52,4.29866,4.29866,0,0,0,1.626-1.35v.937a.691.691,0,0,0,.667.667h3.286a.61926.61926,0,0,0,.48-.202.64885.64885,0,0,0,.187-.465v-8.092a5.06779,5.06779,0,0,0-1.602-3.939,7.138,7.138,0,0,0-4.914-1.453,8.458,8.458,0,0,0-3.496.64,5.47357,5.47357,0,0,0-2.111,1.536,2.94877,2.94877,0,0,0-.72,1.613.49.49,0,0,0,.148.415.59376.59376,0,0,0,.441.174h3.098a.30283.30283,0,0,0,.266-.188,3.27985,3.27985,0,0,0,.613-.422,4.672,4.672,0,0,1,.818-.565,1.93385,1.93385,0,0,1,.893-.185,1.7367,1.7367,0,0,1,1.357.451,2.13636,2.13636,0,0,1,.404,1.444v.32l-3.313.507a9.27793,9.27793,0,0,0-4.151,1.561,3.5315,3.5315,0,0,0-1.509,2.953,3.68525,3.68525,0,0,0,.653,2.105,4.42373,4.42373,0,0,0,1.82,1.509,5.92561,5.92561,0,0,0,2.577.549m1.334-3.149a2.17221,2.17221,0,0,1-1.297-.376,1.15577,1.15577,0,0,1-.522-.987c0-.785.751-1.315,2.246-1.601l2.213-.373v.319a3.15332,3.15332,0,0,1-.731,2.244,2.5181,2.5181,0,0,1-1.909.774m10.705,2.883h3.364a.61351.61351,0,0,0,.478-.202.64869.64869,0,0,0,.191-.465v-7.425a2.53743,2.53743,0,0,1,.534-1.775,1.77926,1.77926,0,0,1,1.359-.574,1.82376,1.82376,0,0,1,1.392.574,2.60615,2.60615,0,0,1,.531,1.804v7.396a.616.616,0,0,0,.202.478.67984.67984,0,0,0,.493.189h3.282a.642.642,0,0,0,.485-.202.66983.66983,0,0,0,.182-.465v-7.396a2.62669,2.62669,0,0,1,.522-1.804,1.74653,1.74653,0,0,1,1.35-.574,1.79928,1.79928,0,0,1,1.399.574,2.62663,2.62663,0,0,1,.524,1.804v7.396a.6061.6061,0,0,0,.202.478.68071.68071,0,0,0,.492.189h3.28a.622.622,0,0,0,.482-.202.6488.6488,0,0,0,.187-.465v-7.583a6.28653,6.28653,0,0,0-1.373-4.419,4.64726,4.64726,0,0,0-3.566-1.482,4.949,4.949,0,0,0-2.455.64,4.86112,4.86112,0,0,0-1.791,1.656,4.05863,4.05863,0,0,0-4.029-2.296,4.88252,4.88252,0,0,0-2.298.533,5.32576,5.32576,0,0,0-1.655,1.312v-.908a.63477.63477,0,0,0-.669-.667h-3.095a.6552.6552,0,0,0-.465.182.62794.62794,0,0,0-.202.485v12.547a.691.691,0,0,0,.667.667m30.088.266a8.81419,8.81419,0,0,0,3.567-.667,6.25959,6.25959,0,0,0,2.296-1.603,2.72439,2.72439,0,0,0,.788-1.626.46361.46361,0,0,0-.172-.361.63015.63015,0,0,0-.414-.145h-3.498a1.17553,1.17553,0,0,0-.47.065,1.31809,1.31809,0,0,0-.386.333,3.43992,3.43992,0,0,1-.734.653,1.85641,1.85641,0,0,1-1.03.256,1.77735,1.77735,0,0,1-1.523-.735,3.38926,3.38926,0,0,1-.558-1.936v-.16h8.462a.67733.67733,0,0,0,.498-.202.66932.66932,0,0,0,.196-.494v-.669a8.33907,8.33907,0,0,0-.784-3.671,5.82867,5.82867,0,0,0-2.378-2.532,7.61239,7.61239,0,0,0-3.883-.923,7.00568,7.00568,0,0,0-5.049,1.788,6.88665,6.88665,0,0,0-1.975,4.967v.828a6.7784,6.7784,0,0,0,1.922,5.086,7.20847,7.20847,0,0,0,5.125,1.748m-2.134-8.648v-.057a3.20231,3.20231,0,0,1,.545-1.988,1.86732,1.86732,0,0,1,1.566-.706,1.89242,1.89242,0,0,1,1.573.706,3.12756,3.12756,0,0,1,.559,1.988v.057Zm11.964,8.382h3.549a.62006.62006,0,0,0,.479-.202.64985.64985,0,0,0,.188-.465v-7.293a2.56114,2.56114,0,0,1,.614-1.827,2.19981,2.19981,0,0,1,1.679-.654,2.10893,2.10893,0,0,1,1.668.644,2.63169,2.63169,0,0,1,.576,1.837v7.293a.6263.6263,0,0,0,.202.478.6791.6791,0,0,0,.492.189h3.555a.62832.62832,0,0,0,.478-.202.66356.66356,0,0,0,.189-.465v-7.452a7.30492,7.30492,0,0,0-.681-3.281,4.833,4.833,0,0,0-1.871-2.06,5.30086,5.30086,0,0,0-2.708-.691,6.05911,6.05911,0,0,0-2.604.533,5.22,5.22,0,0,0-1.858,1.414v-1.01a.63173.63173,0,0,0-.667-.667h-3.28a.67464.67464,0,0,0-.471.182.64441.64441,0,0,0-.196.485v12.547a.63774.63774,0,0,0,.196.465.64447.64447,0,0,0,.471.202m23.465,0h2.539a.632.632,0,0,0,.479-.202.66594.66594,0,0,0,.187-.465v-2.459a.71134.71134,0,0,0-.187-.494.63664.63664,0,0,0-.479-.199h-2.111a1.29754,1.29754,0,0,1-1.123-.478,2.42376,2.42376,0,0,1-.343-1.415v-4.542h3.331a.696.696,0,0,0,.498-.187.62524.62524,0,0,0,.199-.48v-2.293a.64682.64682,0,0,0-.199-.485.70975.70975,0,0,0-.498-.182h-3.331v-4.411a.64351.64351,0,0,0-.669-.667h-3.284a.67667.67667,0,0,0-.468.188.6335.6335,0,0,0-.202.479v4.411h-2.108a.66673.66673,0,0,0-.467.182.6348.6348,0,0,0-.202.485v2.293a.69091.69091,0,0,0,.669.667h2.108v4.94q0,5.3115,5.661,5.314m-346.448-16.733a.59607.59607,0,0,1-.17-.443v-1.391a.64345.64345,0,0,1,.17-.457.58446.58446,0,0,1,.442-.186H47.1a.62551.62551,0,0,1,.457.186.61886.61886,0,0,1,.189.457v1.391a.57469.57469,0,0,1-.189.443.64485.64485,0,0,1-.457.175H45.519a.60151.60151,0,0,1-.442-.175m.216,16.558a.59759.59759,0,0,1-.174-.441v-12.701a.59691.59691,0,0,1,.617-.616h1.18a.60089.60089,0,0,1,.439.175.59069.59069,0,0,1,.175.441v12.701a.59831.59831,0,0,1-.614.616h-1.18a.58909.58909,0,0,1-.443-.175" transform="translate(-36.4335 -47.87271)"/><path class="cls-3" d="M119.7017,279.1188q-3.79351-2.96849-4.047-8.87-.051-1.164-.048-3.835c0-1.806.014-3.114.048-3.916q.2115-5.601,4.089-8.504,3.87148-2.913,10.421-2.909a21.47223,21.47223,0,0,1,7.752,1.293,12.09127,12.09127,0,0,1,5.166,3.486,7.83983,7.83983,0,0,1,1.895,4.822.92891.92891,0,0,1-.278.669.90636.90636,0,0,1-.673.282h-9.514a1.52972,1.52972,0,0,1-1.249-.474,6.20358,6.20358,0,0,0-.387-.535,2.86989,2.86989,0,0,0-1.052-.801,3.78683,3.78683,0,0,0-1.66-.347q-3.1875,0-3.314,3.234c-.033.776-.046,1.979-.046,3.613,0,1.637.013,2.875.046,3.706q.1275,3.66,3.489,3.661a4.37568,4.37568,0,0,0,2.688-.733,2.73083,2.73083,0,0,0,.969-2.327v-.041h-2.023a1.17291,1.17291,0,0,1-1.165-1.162v-4.781a1.16945,1.16945,0,0,1,1.165-1.16h11.843a1.16949,1.16949,0,0,1,1.161,1.16v5.599a10.9619,10.9619,0,0,1-1.871,6.459,11.46247,11.46247,0,0,1-5.214,4.028,20.41866,20.41866,0,0,1-7.728,1.354q-6.6765,0-10.463-2.971" transform="translate(-36.4335 -47.87271)"/><path class="cls-3" d="M161.567,264.09011a1.81231,1.81231,0,0,0,1.466-.624,2.394,2.394,0,0,0,.512-1.569,2.82728,2.82728,0,0,0-.495-1.66,1.68181,1.68181,0,0,0-1.483-.71h-3.145v4.563ZM148,281.31511a1.11413,1.11413,0,0,1-.343-.818v-27.82a1.173,1.173,0,0,1,1.161-1.161h12.749q6.204,0,9.688,2.78a9.27,9.27,0,0,1,3.487,7.685,9.60948,9.60948,0,0,1-1.246,4.931,10.43,10.43,0,0,1-3.402,3.511l5.291,9.815a1.04093,1.04093,0,0,1,.132.474.90769.90769,0,0,1-.281.669.892.892,0,0,1-.663.277h-8.829a1.89162,1.89162,0,0,1-1.226-.363,2.05808,2.05808,0,0,1-.63-.798l-3.7-8.227h-1.766v8.227a1.17124,1.17124,0,0,1-1.161,1.161h-8.443a1.117,1.117,0,0,1-.818-.343" transform="translate(-36.4335 -47.87271)"/><path class="cls-3" d="M177.8936,281.31511a1.11413,1.11413,0,0,1-.343-.818v-27.82a1.173,1.173,0,0,1,1.161-1.161h22.088a1.1166,1.1166,0,0,1,.822.344,1.13147,1.13147,0,0,1,.343.817v6.075a1.13708,1.13708,0,0,1-.343.818,1.11857,1.11857,0,0,1-.822.342h-12.914v2.713h11.968a1.19062,1.19062,0,0,1,1.168,1.166v5.597a1.1835,1.1835,0,0,1-1.168,1.161h-11.968v2.714h13.263a1.173,1.173,0,0,1,1.16,1.159v6.075a1.173,1.173,0,0,1-1.16,1.161h-22.437a1.117,1.117,0,0,1-.818-.343" transform="translate(-36.4335 -47.87271)"/><path class="cls-3" d="M206.0166,281.31511a1.12189,1.12189,0,0,1-.343-.818v-27.82a1.173,1.173,0,0,1,1.161-1.161h22.088a1.12582,1.12582,0,0,1,.824.344,1.13951,1.13951,0,0,1,.343.817v6.075a1.1452,1.1452,0,0,1-.343.818,1.12783,1.12783,0,0,1-.824.342h-12.918v2.713h11.974a1.19069,1.19069,0,0,1,1.166,1.166v5.597a1.18354,1.18354,0,0,1-1.166,1.161h-11.974v2.714h13.267a1.1695,1.1695,0,0,1,1.16,1.159v6.075a1.16947,1.16947,0,0,1-1.16,1.161h-22.437a1.117,1.117,0,0,1-.818-.343" transform="translate(-36.4335 -47.87271)"/><path class="cls-3" d="M234.7393,281.31511a1.12288,1.12288,0,0,1-.344-.818v-27.82a1.17478,1.17478,0,0,1,1.162-1.161h6.806a1.89311,1.89311,0,0,1,1.764.987l7.281,11.931v-11.757a1.17316,1.17316,0,0,1,1.155-1.161h7.799a1.1142,1.1142,0,0,1,.818.344,1.13253,1.13253,0,0,1,.344.817v27.82a1.13481,1.13481,0,0,1-.344.818,1.11711,1.11711,0,0,1-.818.343h-6.806a1.75413,1.75413,0,0,1-1.114-.302,2.68083,2.68083,0,0,1-.649-.685l-7.278-10.981v10.807a1.11808,1.11808,0,0,1-.347.818,1.10587,1.10587,0,0,1-.818.343h-7.793a1.12026,1.12026,0,0,1-.818-.343" transform="translate(-36.4335 -47.87271)"/><path class="cls-3" d="M269.9072,280.84141a10.74725,10.74725,0,0,1-4.758-3.337,7.8998,7.8998,0,0,1-1.683-4.589.94439.94439,0,0,1,.282-.668.93429.93429,0,0,1,.674-.276h8.178a2.59844,2.59844,0,0,1,.968.151,3.76665,3.76665,0,0,1,.883.583,4.99281,4.99281,0,0,0,3.188.987,7.10193,7.10193,0,0,0,2.347-.32c.586-.216.883-.512.883-.885,0-.516-.391-.913-1.166-1.183a25.53074,25.53074,0,0,0-4.391-.842q-11.112-1.4595-11.112-9.473a8.5012,8.5012,0,0,1,1.659-5.147,10.76481,10.76481,0,0,1,4.631-3.507,17.45829,17.45829,0,0,1,6.843-1.249,17.074,17.074,0,0,1,7.108,1.377,12.12913,12.12913,0,0,1,4.695,3.465,7.17557,7.17557,0,0,1,1.721,4.069.91278.91278,0,0,1-.281.669.85143.85143,0,0,1-.625.28h-8.607a2.48123,2.48123,0,0,1-.951-.148,3.1386,3.1386,0,0,1-.774-.542,3.38907,3.38907,0,0,0-2.286-.775c-1.377,0-2.064.404-2.064,1.203,0,.433.335.795,1.012,1.081a16.28082,16.28082,0,0,0,3.77.777,26.41853,26.41853,0,0,1,6.91,1.677,8.07593,8.07593,0,0,1,3.788,2.994,8.6388,8.6388,0,0,1,1.185,4.715,8.305,8.305,0,0,1-1.852,5.358,11.76436,11.76436,0,0,1-5.105,3.555,20.33561,20.33561,0,0,1-7.338,1.25,21.13613,21.13613,0,0,1-7.732-1.25" transform="translate(-36.4335 -47.87271)"/><path class="cls-3" d="M311.73929,281.31511a1.12286,1.12286,0,0,1-.344-.818v-27.82a1.17481,1.17481,0,0,1,1.162-1.161h22.088a1.12581,1.12581,0,0,1,.824.344,1.13953,1.13953,0,0,1,.343.817v6.075a1.14522,1.14522,0,0,1-.343.818,1.12781,1.12781,0,0,1-.824.342h-12.918v2.713h11.974a1.187,1.187,0,0,1,1.166,1.166v5.597a1.18,1.18,0,0,1-1.166,1.161h-11.974v2.714h13.267a1.16948,1.16948,0,0,1,1.16,1.159v6.075a1.16945,1.16945,0,0,1-1.16,1.161h-22.437a1.12022,1.12022,0,0,1-.818-.343" transform="translate(-36.4335 -47.87271)"/><path class="cls-3" d="M339.86331,281.31511a1.11506,1.11506,0,0,1-.344-.818v-27.82a1.17479,1.17479,0,0,1,1.162-1.161h21.707a1.10285,1.10285,0,0,1,.815.344,1.12358,1.12358,0,0,1,.347.817v6.55a1.17473,1.17473,0,0,1-1.162,1.159h-12.321v3.189h11.456a1.17646,1.17646,0,0,1,1.165,1.161v6.506a1.1818,1.1818,0,0,1-1.165,1.162h-11.456v8.093a1.173,1.173,0,0,1-1.161,1.161h-8.225a1.117,1.117,0,0,1-.818-.343" transform="translate(-36.4335 -47.87271)"/><path class="cls-3" d="M376.04,269.34551h4.866l-2.455-8.009Zm-13.541,12.034a.90581.90581,0,0,1-.283-.667.94983.94983,0,0,1,.042-.302l9.609-27.475a2.178,2.178,0,0,1,.644-.988,1.85005,1.85005,0,0,1,1.289-.43h9.348a1.871,1.871,0,0,1,1.293.43,2.23674,2.23674,0,0,1,.644.988l9.603,27.475a.94736.94736,0,0,1,.044.302.95955.95955,0,0,1-.952.95h-7.962a1.59626,1.59626,0,0,1-1.678-1.077l-1.035-2.843h-9.258l-1.036,2.843a1.60108,1.60108,0,0,1-1.677,1.077h-7.968a.909.909,0,0,1-.667-.283" transform="translate(-36.4335 -47.87271)"/><path class="cls-3" d="M45.9482,281.24181a.92386.92386,0,0,1-.269-.681v-24.499h-7.999a.92933.92933,0,0,1-.682-.268.91464.91464,0,0,1-.273-.684v-1.616a.96957.96957,0,0,1,.273-.724.91389.91389,0,0,1,.682-.273h19.893a.90233.90233,0,0,1,.706.273,1.01575,1.01575,0,0,1,.253.724v1.616a.93309.93309,0,0,1-.272.684.94909.94909,0,0,1-.687.268h-7.954v24.499a.88936.88936,0,0,1-.29.681,1.00927,1.00927,0,0,1-.707.269h-1.987a.93063.93063,0,0,1-.687-.269" transform="translate(-36.4335 -47.87271)"/><path class="cls-3" d="M63.1772,280.80341a.964.964,0,0,1-.25-.681v-27.067a1.03479,1.03479,0,0,1,.25-.725.85518.85518,0,0,1,.661-.272h1.995a.92861.92861,0,0,1,.991.997v11.52h14.427v-11.52a.965.965,0,0,1,.268-.725.91307.91307,0,0,1,.681-.272h1.988a.92781.92781,0,0,1,.996.997v27.067a.88936.88936,0,0,1-.29.681.99667.99667,0,0,1-.706.269h-1.988a.9184.9184,0,0,1-.681-.269.90038.90038,0,0,1-.268-.681v-11.94H66.8242v11.94a.87089.87089,0,0,1-.292.681.99.99,0,0,1-.699.269h-1.995a.85991.85991,0,0,1-.661-.269" transform="translate(-36.4335 -47.87271)"/><path class="cls-3" d="M92.6875,280.80341a.964.964,0,0,1-.25-.681v-27.067a1.03479,1.03479,0,0,1,.25-.725.8595.8595,0,0,1,.663-.272h17.036a.97516.97516,0,0,1,.724.272.998.998,0,0,1,.27.725v1.491a.88466.88466,0,0,1-.27.667,1.02711,1.02711,0,0,1-.724.243H96.2505v9.243h13.224a.986.986,0,0,1,.727.273.97188.97188,0,0,1,.269.724v1.411a.9177.9177,0,0,1-.269.68.97815.97815,0,0,1-.727.273H96.2505v9.574h14.463a.98674.98674,0,0,1,.73.27.97455.97455,0,0,1,.267.723v1.495a.88932.88932,0,0,1-.29.681.999.999,0,0,1-.707.269h-17.363a.86428.86428,0,0,1-.663-.269" transform="translate(-36.4335 -47.87271)"/><path class="cls-3" d="M295.36911,281.07391a2.45657,2.45657,0,0,1-2.232-3.475l11.169-24.552a2.45567,2.45567,0,0,1,4.469,2.037l-11.174,24.552a2.45223,2.45223,0,0,1-2.232,1.438" transform="translate(-36.4335 -47.87271)"/></g></svg>