<?xml version="1.0" encoding="UTF-8" standalone="no"?>
<!-- Created with Inkscape (http://www.inkscape.org/) -->
<svg version="1.1" id="svg6809" width="4288.9033" height="993" viewBox="0 0 4288.9033 993" sodipodi:docname="cropped-ID-E-DE-Logo-EN_POSITIVO-ORIZZONTALE-2.jpg" xmlns:inkscape="http://www.inkscape.org/namespaces/inkscape" xmlns:sodipodi="http://sodipodi.sourceforge.net/DTD/sodipodi-0.dtd" xmlns="http://www.w3.org/2000/svg" xmlns:svg="http://www.w3.org/2000/svg">
  <defs id="defs6813"/>
  <sodipodi:namedview id="namedview6811" pagecolor="#ffffff" bordercolor="#000000" borderopacity="0.25" inkscape:showpageshadow="2" inkscape:pageopacity="0.0" inkscape:pagecheckerboard="0" inkscape:deskcolor="#d1d1d1" showgrid="false"/>
  <g inkscape:groupmode="layer" inkscape:label="Image" id="g6815" transform="translate(-3.4543269,1015.5721)">
    <path style="fill:#4ba1da;fill-opacity:1" d="m 324.70673,-846.3101 -1.13893,433.8996 -219.57265,-63.91983 -27.999955,310.52264 773.769225,6.90865 103.62981,-701.22836 z" id="path6821" sodipodi:nodetypes="ccccccc"/>
    <path style="fill:#164289;fill-opacity:1" d="m 3.4543269,-519.07212 v -496.49998 h 496.5000031 496.5 v 496.49998 496.500005 h -496.5 H 3.4543269 Z M 282.45433,-302.33105 v -72.75894 l -11.25,-2.83374 c -12.48162,-3.14398 -50.7208,-15.51189 -69.16406,-22.37012 -23.89907,-8.887 -54.44952,-22.89708 -73.43201,-33.67506 -3.49033,-1.98177 -6.75283,-3.60321 -7.25,-3.60321 -0.53278,0 -0.90393,42.70179 -0.90393,104 v 104 h 81 81 z m 317,70.42888 c 67.13197,-8.57417 119.41624,-29.20876 166.60848,-65.75395 62.13696,-48.11824 100.34355,-114.56081 111.02666,-193.07915 2.55616,-18.78715 2.29831,-52.10315 -0.54824,-70.83685 -7.48613,-49.26771 -25.90751,-92.67541 -54.53224,-128.49844 -8.01242,-10.0273 -33.55437,-36.32508 -41.05466,-42.26951 -26.04103,-20.63911 -40.65803,-30.28879 -62.27773,-41.11378 -32.05094,-16.04792 -67.41855,-26.75811 -104.22227,-31.5611 -23.966,-3.12763 -43.08465,-3.55717 -158.32955,-3.5572 l -116.17045,-3e-5 0.5,183.59404 0.5,183.59404 8.5,3.4318 c 23.25092,9.38734 47.43059,15.36813 78.5,19.41682 18.46537,2.40625 45.75423,3.4497 59.5,2.27513 l 9.5,-0.81177 0.5,-127.5 0.5,-127.5 16.5,-0.72048 c 42.22911,-1.84395 80.8139,3.34327 110.24726,14.82129 48.97562,19.09884 83.89648,59.54219 95.83937,110.9957 3.03071,13.05718 3.73801,38.79196 1.44335,52.51505 -4.2099,25.17702 -14.83678,47.39972 -32.49432,67.95141 -32.98656,38.39322 -79.45566,58.73295 -149.45848,65.41864 -38.22863,3.65107 -118.06925,4.47698 -151.07718,1.56282 -18.22122,-1.60869 -42.66532,-4.03477 -45.73619,-4.53933 l -2.73618,-0.44957 -0.26382,67.52275 -0.26381,67.52275 123,-0.35343 c 109.18651,-0.31373 124.51611,-0.54706 136.5,-2.07765 z m -317,-409.66995 v -167 h -79.5 -79.5 v 10.89319 c 0,32.54795 9.70906,87.28082 22.57082,127.23845 22.16308,68.85402 59.55722,128.86509 107.28034,172.16626 9.45123,8.57549 27.82947,23.64157 28.89884,23.69063 0.1375,0.006 0.25,-75.13853 0.25,-166.98853 z M 2922.658,-227.67439 c -36.798,-4.97411 -68.8253,-23.48841 -88.6215,-51.23032 -9.2876,-13.0154 -17.5848,-33.30735 -20.7175,-50.66741 -1.9357,-10.72716 -1.6738,-37.24981 0.4762,-48.20981 9.9671,-50.81033 46.2107,-86.68169 98.9707,-97.95425 13.4338,-2.87022 41.3642,-3.12032 55.4468,-0.49649 51.8836,9.66679 89.6975,45.73759 100.3528,95.72693 3.2081,15.05045 3.2178,41.01014 0.021,55.86724 -10.6872,49.6689 -46.7101,84.57304 -98.1323,95.08444 -12.1662,2.48694 -36.2863,3.4355 -47.7963,1.87967 z m 35.6081,-56.50141 c 8.0722,-1.78561 15.6389,-5.38062 23.0487,-10.95071 24.5,-18.417 33.274,-57.32685 20.0568,-88.94561 -10.0839,-24.12295 -32.8214,-38.80329 -59.9173,-38.68514 -19.1171,0.0834 -34.3897,6.23697 -46.6522,18.79703 -13.6448,13.9758 -20.1897,33.30223 -19.0961,56.38811 0.8678,18.31863 7.6919,34.59778 19.608,46.77577 15.4723,15.81222 38.7834,21.9668 62.9521,16.62055 z m 245.6882,56.97477 c -17.5913,-1.92354 -35.5968,-6.92098 -49,-13.59998 -35.656,-17.76794 -57.8041,-46.8181 -66.155,-86.77111 -2.4338,-11.64429 -2.4529,-38.05668 -0.036,-50.18222 6.7408,-33.82229 25.7575,-62.31521 53.1176,-79.58686 36.4396,-23.00333 88.6386,-27.65549 126.669,-11.28919 21.5299,9.26537 41.1059,27.71112 53.9095,50.79708 1.293,2.33135 2.1584,4.43119 1.9231,4.66631 -0.2354,0.23512 -12.3389,6.07026 -26.8967,12.96697 l -26.4689,12.53948 -2.9735,-5.5416 c -3.7162,-6.92559 -12.3327,-15.9534 -19.761,-20.70417 -25.8816,-16.55276 -62.3252,-9.46509 -82.7351,16.09057 -10.553,13.21359 -14.5316,25.60091 -14.5316,45.24363 0,19.87732 4.2518,32.61868 15.5191,46.50583 16.0922,19.83402 45.249,28.84599 68.2476,21.09439 14.0667,-4.74111 26.935,-15.1809 33.274,-26.99451 l 2.9866,-5.56593 26.4432,12.55085 c 14.5438,6.90296 26.5916,12.69927 26.773,12.88067 0.6549,0.65482 -4.7371,10.18694 -9.91,17.51917 -6.6157,9.3774 -19.5199,22.43193 -27.3946,27.71373 -13.0683,8.76528 -28.052,14.98978 -42.8899,17.81726 -8.1124,1.54589 -32.5725,2.67384 -40.1101,1.84963 z m 733,0.0225 c -33.4738,-3.4754 -61.801,-16.01437 -82.3977,-36.47325 -17.5725,-17.45478 -28.3355,-37.81213 -33.7949,-63.92036 -2.6589,-12.71552 -2.3995,-39.05755 0.5187,-52.67312 8.0374,-37.50019 30.6832,-66.74364 64.8068,-83.68764 35.0572,-17.40759 80.5294,-19.282 114.4106,-4.71612 17.1533,7.37437 33.4499,20.73604 44.9223,36.83194 6.0338,8.46549 11.5487,18.06375 10.8059,18.80661 -0.4564,0.45639 -19.7813,9.66492 -38.7717,18.47514 l -14.5,6.72699 -3,-5.59051 c -4.1999,-7.82658 -14.6435,-17.95271 -23.0616,-22.36074 -9.8681,-5.16726 -17.3202,-7.07892 -27.3887,-7.02587 -39.9682,0.21056 -69.0199,32.49756 -66.7354,74.16748 1.1125,20.2943 7.5176,34.90011 21.1353,48.19588 17.0946,16.69055 43.7256,22.69917 65.2225,14.71585 12.4782,-4.63402 25.0843,-15.29293 30.8485,-26.08346 l 3.0205,-5.65448 26.7405,12.61365 c 24.1544,11.39383 26.6803,12.81407 26.1188,14.68603 -1.2172,4.05782 -13.7895,21.94731 -20.1987,28.7414 -14.9045,15.79961 -34.8509,26.92687 -57.2017,31.91048 -8.3438,1.86043 -32.7576,3.22178 -41.5,2.3141 z m -2810.4042,-6.131 c 1.2939,-3.38564 28.5671,-75.75713 56.438,-149.76261 11.3923,-30.25 23.764,-63.1 27.4927,-73 l 6.7795,-18 39.4856,-0.26138 c 36.914,-0.24435 39.5307,-0.14666 40.1771,1.5 1.2022,3.06264 44.1367,116.47143 63.5113,167.76138 13.2618,35.10754 26.3529,69.67419 27.5567,72.76275 0.6496,1.66656 -1.2645,1.74842 -35.0745,1.5 l -35.7615,-0.26275 -1.346,-4 c -0.7403,-2.2 -3.4236,-9.9625 -5.963,-17.25 l -4.617,-13.25 h -48.2379 -48.2378 l -5.8995,17.25 -5.8995,17.25 -35.73,0.26261 -35.7301,0.26261 z m 160.9042,-88.18806 c 0,-1.10443 -29.7846,-89.19247 -30.3488,-89.75667 -0.3663,-0.36633 -3.9724,9.9505 -23.5697,67.43214 l -7.9266,23.25 h 30.9226 c 18.2881,0 30.9225,-0.37813 30.9225,-0.92547 z m 114,-31.07453 v -122 h 32.3806 32.3805 l 10.8431,14.75 c 5.9637,8.1125 16.4997,22.4 23.4132,31.75 6.9135,9.35 15.5509,21.05 19.1941,26 3.6432,4.95 10.8235,14.68937 15.9562,21.64305 5.1328,6.95368 13.8323,18.78977 19.3323,26.30242 l 10,13.65937 0.257,-67.05242 0.2571,-67.05242 h 31.4929 31.493 v 122 122 h -30.2853 -30.2853 l -30.9174,-42.25 c -17.0046,-23.2375 -34.5646,-47.2 -39.0223,-53.25 -4.4577,-6.05 -13.704,-18.65 -20.5473,-28 l -12.4424,-17 -0.2568,70.25 -0.2567,70.25 h -31.4933 -31.4932 z m 268,0 v -122 l 55.25,0.0173 c 55.0544,0.0173 67.0693,0.54233 82.25,3.5944 44.3646,8.91944 77.7403,37.36038 90.5196,77.13579 7.9442,24.72619 8.0907,56.94953 0.3701,81.4241 -12.6904,40.22912 -46.4079,69.22989 -90.9423,78.2206 -15.0894,3.04628 -27.152,3.57319 -82.1974,3.59045 l -55.25,0.0174 z m 124.5,64.09886 c 20.9812,-6.82113 36.0103,-22.14307 42.6838,-43.51565 1.0988,-3.51893 2.1505,-10.72833 2.4951,-17.1028 1.4761,-27.30948 -9.1727,-49.41242 -29.6291,-61.49885 -12.3574,-7.30126 -17.7864,-8.2629 -49.2998,-8.73269 l -27.75,-0.41368 v 67.16592 67.16593 l 27.25,-0.39622 c 25.0109,-0.36366 27.8252,-0.58322 34.25,-2.67196 z m 235.5,-64.09886 v -122 l 55.25,0.0173 c 55.0454,0.0173 67.108,0.54417 82.1974,3.59045 41.1664,8.31077 73.5664,33.80444 87.6442,68.96207 6.1516,15.36284 8.0644,25.23544 8.6085,44.43015 0.5558,19.60924 -0.7485,30.71027 -5.3055,45.15596 -12.6957,40.24574 -46.4053,69.24404 -90.9472,78.23626 -15.0894,3.04628 -27.152,3.57319 -82.1974,3.59045 l -55.25,0.0174 z m 125.5,63.64508 c 11.2195,-3.9159 17.972,-8.0468 25.5186,-15.61114 8.0773,-8.09633 14.1297,-19.31535 17.0857,-31.67122 1.7666,-7.38396 2.029,-10.78151 1.5728,-20.36272 -0.3011,-6.325 -1.2872,-14.16985 -2.1913,-17.433 -4.808,-17.35414 -15.6904,-30.83662 -31.0978,-38.528 -11.5665,-5.77398 -15.3879,-6.34268 -45.638,-6.79181 l -27.75,-0.412 v 67.16592 67.16593 l 27.25,-0.36487 c 26.7975,-0.35881 27.3829,-0.41124 35.25,-3.15709 z m 136.5,-63.64508 v -122 h 89.5 89.5 v 27.5 27.5 h -58 -58 v 18.5 18.5 h 56.5 56.5 v 27.5 27.5 h -56.5 -56.5 v 21 21 h 58 58 v 27.5 27.5 h -89.5 -89.5 z m 215,0 v -122 l 43.75,0.0127 43.75,0.0127 20.9456,54.73731 c 26.2177,68.51494 29.6969,77.43202 30.0618,77.04713 0.287,-0.30282 29.5503,-75.81509 43.813,-113.05675 l 7.1796,-18.74692 43.75,-0.003 43.75,-0.003 v 122 122 h -31.494 -31.494 l -0.256,-78.97323 -0.256,-78.97322 -7.196,18.72322 c -3.9579,10.29761 -17.7196,45.72306 -30.5817,78.72306 l -23.3856,60 -13.9366,0.27604 -13.9366,0.27605 -3.16,-8.27605 c -3.9563,-10.36149 -30.2183,-78.17732 -46.1902,-119.27604 l -12.0474,-31 -0.033,79.25 -0.033,79.25 h -31.5 -31.5 v -122 z m 841,0 v -122 h 64.4276 c 39.8381,0 67.4132,0.40493 72.25,1.06097 34.7777,4.71699 58.6874,25.16449 67.5173,57.74056 2.8558,10.53611 3.0853,31.29382 0.4719,42.69847 -4.9549,21.62353 -19.218,39.78704 -38.7443,49.33958 l -7.5775,3.70701 21.3848,38.47671 c 11.7617,21.16218 22.9561,41.2892 24.8765,44.7267 l 3.4916,6.25 h -36.1166 -36.1166 l -20.1823,-40.99669 -20.1824,-40.99669 -16.25,-0.003 -16.25,-0.004 v 41 41 h -31.5 -31.5 z m 128.2242,-18.31095 c 9.6441,-4.73583 14.7758,-12.6158 14.7758,-22.68905 0,-10.07325 -5.1317,-17.95322 -14.7758,-22.68905 l -5.7242,-2.81095 -29.75,-0.30479 -29.75,-0.3048 v 26.10959 26.10959 l 29.75,-0.3048 29.75,-0.30479 z m 91.3986,133.57354 c 1.3985,-3.71943 16.2736,-43.21259 33.0557,-87.76259 16.7821,-44.55 35.6573,-94.725 41.945,-111.5 6.2876,-16.775 12.1629,-32.1875 13.0562,-34.25 l 1.624,-3.75 h 39.232 39.232 l 2.0848,5.25 c 1.1466,2.8875 12.7066,33.375 25.6888,67.75 12.9822,34.375 28.71,76 34.9506,92.5 6.2406,16.5 15.1693,40.125 19.8416,52.5 4.6723,12.375 8.809,23.29324 9.1926,24.26275 0.6597,1.66673 -1.2505,1.74844 -35.0639,1.5 l -35.7615,-0.26275 -1.346,-4 c -0.7403,-2.2 -3.4236,-9.9625 -5.963,-17.25 l -4.617,-13.25 h -48.2379 -48.2378 l -5.8995,17.25 -5.8995,17.25 -35.7099,0.26259 -35.7099,0.26259 z m 159.932,-84.17392 c -0.3098,-0.50123 -7.3111,-20.82603 -15.5586,-45.16623 -8.2474,-24.34019 -15.1606,-44.42019 -15.3626,-44.62221 -0.4014,-0.40132 -3.6835,8.90963 -15.7568,44.69977 -4.3601,12.925 -9.7057,28.5625 -11.8791,34.75 l -3.9518,11.25 h 31.5361 c 18.7237,0 31.3072,-0.37025 30.9728,-0.91133 z m 410.4452,41.63038 v -49.28094 l -31.1225,-48.96906 c -17.1173,-26.93298 -33.5679,-52.79405 -36.5567,-57.46905 -15.7539,-24.64134 -24.3208,-38.23713 -24.3208,-38.59731 0,-0.22148 15.8625,-0.39484 35.25,-0.38524 l 35.25,0.0174 8,13.69058 c 7.7935,13.3372 42.5901,72.4605 44.1957,75.09338 0.5368,0.88022 9.2037,-13.11024 26.0587,-42.06492 13.89,-23.86108 25.815,-44.14856 26.5,-45.08329 1.1379,-1.55252 4.2904,-1.67665 36.4472,-1.43508 l 35.2015,0.26443 -4.8044,7.5 c -2.6424,4.125 -13.4945,21.225 -24.1157,38 -10.6212,16.775 -25.0176,39.5 -31.9918,50.5 -6.9743,11 -16.8005,26.50739 -21.8359,34.46087 l -9.1553,14.46087 v 49.28913 49.28913 h -31.5 -31.5 v -49.28095 z m -2986,-406.71905 v -122 h 31.5 31.5 v 122 122 h -31.5 -31.5 z m 103,0 V -808.708 l 61.75,0.42285 c 52.546,0.35982 63.0169,0.67288 70.25,2.10032 28.0454,5.53473 49.2903,15.63432 66.0748,31.41118 14.841,13.95 23.1655,26.78849 29.3463,45.25941 5.4045,16.15121 6.8748,27.33188 6.2389,47.44212 -0.6037,19.09018 -2.3682,28.65126 -7.9497,43.07703 -6.1355,15.8575 -14.5038,28.25297 -26.9942,39.98491 -17.3961,16.33976 -38.5147,26.48525 -66.7161,32.05077 -7.2331,1.42744 -17.704,1.7405 -70.25,2.10032 l -61.75,0.42285 z m 124.5,64.09886 c 24.0006,-7.80275 39.8165,-26.09426 44.503,-51.46908 1.557,-8.43027 0.7839,-25.66123 -1.5282,-34.06278 -5.124,-18.61933 -18.6013,-34.04706 -35.4748,-40.60879 -10.3644,-4.0305 -18.7071,-4.95821 -44.588,-4.95821 h -24.412 v 67.08352 67.08352 l 27.25,-0.39622 c 25.0109,-0.36366 27.8252,-0.58322 34.25,-2.67196 z m 137.5,-64.09886 v -122 h 89.5 89.5 v 27.5 27.5 h -58 -58 v 18.5 18.5 h 56.5 56.5 v 27.5 27.5 h -56.5 -56.5 v 21 21 h 58 58 v 27.5 27.5 h -89.5 -89.5 z m 215,0 v -122 h 32.3684 32.3684 l 12.3336,16.75 c 6.7835,9.2125 15.3143,20.8 18.9574,25.75 3.6431,4.95 11.7812,15.975 18.0847,24.5 6.3034,8.525 19.9943,27.08095 30.4241,41.23544 l 18.9634,25.73544 0.257,-66.98544 0.2571,-66.98544 h 31.4929 31.493 v 122 122 h -30.2654 -30.2654 l -19.4846,-26.59797 c -10.7165,-14.62888 -22.7732,-31.07454 -26.7926,-36.54591 -4.0194,-5.47137 -18.5319,-25.27805 -32.25,-44.01485 l -24.942,-34.06691 v 70.61282 70.61282 h -31.5 -31.5 z m 314,27.5 v -94.5 h -34 -34 v -27.5 -27.5 h 99.5 99.5 v 27.5 27.5 h -34 -34 v 94.5 94.5 h -31.5 -31.5 z m 150,-27.5 v -122 h 31.5 31.5 v 122 122 h -31.5 -31.5 z m 149,27.5 v -94.5 h -34 -34 v -27.5 -27.5 h 99.5 99.5 v 27.5 27.5 h -34 -34 v 94.5 94.5 h -31.5 -31.5 z m 232,45.18158 v -49.31842 l -46,-72.25469 c -25.3,-39.74008 -46,-72.44679 -46,-72.68158 0,-0.23479 15.8625,-0.41404 35.25,-0.39834 l 35.25,0.0285 10.4007,17.72145 c 5.7204,9.7468 14.5181,24.69645 19.5506,33.22145 5.0325,8.525 12.0521,20.54431 15.5993,26.70959 3.5472,6.16527 6.8894,11.08109 7.4272,10.92405 0.5379,-0.15705 12.513,-20.05136 26.6114,-44.20959 l 25.6336,-43.92405 35.762,-0.26276 35.7619,-0.26277 -1.7431,2.66039 c -1.7497,2.67034 -8.7294,13.67768 -24.0102,37.86514 -4.5171,7.15 -21.326,33.68313 -37.3532,58.96251 l -29.1402,45.96256 v 49.28749 49.28749 h -31.5 -31.5 z" id="path6819"/>
  </g>
</svg>