<svg width="205" height="33" viewBox="0 0 205 33" fill="none" xmlns="http://www.w3.org/2000/svg">
<path d="M42.51 0V6.39205C33.4912 6.67455 25.3945 10.3502 19.6792 16.0655C18.095 17.6519 16.6932 19.3935 15.5076 21.2623C13.8896 19.7132 12.0251 18.3814 9.97135 17.3259C6.98535 15.7892 3.60076 14.8299 0 14.6188V8.22057C5.15119 8.4534 9.97134 9.86282 14.1463 12.1663C21.152 4.93607 31.2483 0.288713 42.5133 0" fill="#E42728"/>
<path d="M21.0608 18.4404C19.4563 20.0609 18.0545 21.8491 16.8925 23.78C16.5378 24.3668 16.2034 24.969 15.8961 25.5837C15.4637 25.0405 15.0009 24.5189 14.5111 24.0222C12.9236 22.411 11.0556 21.0388 8.97489 19.974C6.28276 18.5925 3.23934 17.7264 0 17.5184V23.9322C2.24626 24.1433 4.34389 24.8262 6.17467 25.8693C8.56279 27.226 10.4983 29.1973 11.7177 31.538C11.9001 31.8857 12.0622 32.2459 12.2142 32.6091H20.6081C20.7399 32.072 20.8885 31.5412 21.0608 31.0196C21.9457 28.3529 23.3779 25.9066 25.2324 23.7831C29.3364 19.0799 35.5314 15.9786 42.5066 15.6774V9.2854C34.0249 9.5679 26.4146 13.0449 21.0574 18.4404" fill="#28A186"/>
<path d="M55.8455 27.2009H54.5518V32.6058H55.8455V27.2009Z" fill="#7B8FAA"/>
<path d="M57.4434 27.1982H59.2032L61.7028 30.9546H61.7197V27.1982H63.0168V32.6031H61.3211L58.754 28.7567H58.7405V32.6031H57.4434V27.1982Z" fill="#7B8FAA"/>
<path d="M68.6373 28.2538H66.9585V27.1982H71.6098V28.2538H69.9344V32.6031H68.6373V28.2538Z" fill="#7B8FAA"/>
<path d="M72.6812 27.1982H73.9782V29.2161H76.4947V27.1982H77.7884V32.6031H76.4947V30.2685H73.9782V32.6031H72.6812V27.1982Z" fill="#7B8FAA"/>
<path d="M79.45 27.1982H83.4459V28.3003H80.747V29.3062H83.2973V30.4051H80.747V31.5041H83.5945V32.6031H79.45V27.1982Z" fill="#7B8FAA"/>
<path d="M87.9724 27.1982H91.965V28.3003H89.2661V29.3062H91.8164V30.4051H89.2661V31.5041H92.117V32.6031H87.9724V27.1982Z" fill="#7B8FAA"/>
<path d="M98.5275 30.5196C98.5275 30.8393 98.4734 31.1343 98.3687 31.4043C98.264 31.6744 98.1086 31.9073 97.8992 32.106C97.6931 32.3046 97.433 32.4599 97.1223 32.5716C96.8115 32.6834 96.4535 32.7393 96.0515 32.7393C95.6496 32.7393 95.2814 32.6834 94.9706 32.5716C94.6598 32.4599 94.4031 32.3046 94.1937 32.106C93.9877 31.9073 93.8289 31.6744 93.7242 31.4043C93.6195 31.1343 93.5654 30.8393 93.5654 30.5196V27.2009H94.8625V30.4761C94.8625 30.6438 94.8895 30.799 94.9503 30.9418C95.0078 31.0846 95.0888 31.2088 95.1969 31.3112C95.3016 31.4137 95.4266 31.4975 95.5752 31.5565C95.7205 31.6154 95.8826 31.6434 96.0515 31.6434C96.2204 31.6434 96.3825 31.6154 96.5244 31.5565C96.6697 31.4975 96.7913 31.4168 96.8994 31.3112C97.0041 31.2057 97.0851 31.0846 97.1426 30.9418C97.2 30.799 97.2304 30.6438 97.2304 30.4761V27.2009H98.5275V30.5196Z" fill="#7B8FAA"/>
<path d="M100.139 27.1982H102.415C102.716 27.1982 103 27.2261 103.267 27.2789C103.537 27.3317 103.77 27.4217 103.972 27.5459C104.175 27.67 104.334 27.8377 104.456 28.0488C104.574 28.2599 104.635 28.5238 104.635 28.8373C104.635 29.2192 104.526 29.5451 104.31 29.8121C104.094 30.0791 103.777 30.2498 103.364 30.3181L104.861 32.5999H103.307L102.078 30.4392H101.439V32.5999H100.142V27.1951L100.139 27.1982ZM101.436 29.4334H102.199C102.314 29.4334 102.439 29.4303 102.567 29.4209C102.699 29.4147 102.814 29.3899 102.922 29.3527C103.027 29.3154 103.115 29.2533 103.182 29.1726C103.253 29.0919 103.287 28.977 103.287 28.828C103.287 28.6914 103.256 28.5796 103.196 28.4989C103.135 28.4182 103.057 28.3561 102.963 28.3127C102.868 28.2692 102.76 28.2413 102.638 28.2257C102.517 28.2102 102.398 28.204 102.28 28.204H101.432V29.4334H101.436Z" fill="#7B8FAA"/>
<path d="M105.618 29.9021C105.618 29.4706 105.696 29.0794 105.854 28.7255C106.013 28.3747 106.233 28.0767 106.516 27.8283C106.8 27.5831 107.135 27.3906 107.52 27.2602C107.908 27.1267 108.33 27.0615 108.79 27.0615C109.249 27.0615 109.671 27.1267 110.06 27.2602C110.448 27.3937 110.783 27.5831 111.066 27.8283C111.347 28.0767 111.57 28.3747 111.725 28.7255C111.884 29.0763 111.961 29.4675 111.961 29.9021C111.961 30.3367 111.88 30.7279 111.725 31.0787C111.566 31.4295 111.347 31.7275 111.066 31.9759C110.783 32.2211 110.448 32.4136 110.06 32.544C109.671 32.6775 109.249 32.7427 108.79 32.7427C108.33 32.7427 107.905 32.6775 107.52 32.544C107.131 32.4105 106.797 32.2211 106.516 31.9759C106.233 31.7275 106.013 31.4295 105.854 31.0787C105.696 30.7279 105.618 30.3367 105.618 29.9021ZM106.962 29.9021C106.962 30.1567 107.006 30.3895 107.091 30.6006C107.175 30.8117 107.3 30.9948 107.462 31.1501C107.624 31.3053 107.817 31.4264 108.04 31.5133C108.263 31.6002 108.513 31.6437 108.793 31.6437C109.073 31.6437 109.32 31.6002 109.543 31.5133C109.766 31.4264 109.958 31.3053 110.121 31.1501C110.283 30.9948 110.404 30.8117 110.492 30.6006C110.577 30.3895 110.62 30.1567 110.62 29.9021C110.62 29.6475 110.577 29.4209 110.492 29.2067C110.408 28.9925 110.283 28.8093 110.121 28.6541C109.958 28.4989 109.769 28.3778 109.543 28.2909C109.32 28.204 109.067 28.1605 108.793 28.1605C108.519 28.1605 108.266 28.204 108.04 28.2909C107.817 28.3778 107.624 28.4989 107.462 28.6541C107.303 28.8093 107.178 28.9925 107.091 29.2067C107.006 29.4209 106.962 29.6506 106.962 29.9021Z" fill="#7B8FAA"/>
<path d="M113.259 27.2009H115.441C115.745 27.2009 116.035 27.2258 116.305 27.2785C116.576 27.3282 116.812 27.4182 117.015 27.5424C117.217 27.6666 117.376 27.8342 117.498 28.0453C117.616 28.2564 117.677 28.5234 117.677 28.8432C117.677 29.1629 117.623 29.4237 117.511 29.6379C117.4 29.8521 117.248 30.0229 117.055 30.1501C116.863 30.2774 116.633 30.3675 116.366 30.4202C116.099 30.473 115.812 30.501 115.501 30.501H114.556V32.6089H113.259V27.204V27.2009ZM114.556 29.492H115.42C115.535 29.492 115.65 29.4827 115.755 29.461C115.863 29.4423 115.961 29.4051 116.045 29.3585C116.13 29.3088 116.201 29.2437 116.251 29.1598C116.305 29.076 116.332 28.9705 116.332 28.8432C116.332 28.7066 116.299 28.5948 116.228 28.511C116.157 28.4272 116.069 28.362 115.961 28.3154C115.853 28.2689 115.731 28.2409 115.599 28.2285C115.468 28.2161 115.339 28.2099 115.218 28.2099H114.552V29.492H114.556Z" fill="#7B8FAA"/>
<path d="M118.957 27.1982H122.949V28.3003H120.25V29.3062H122.801V30.4051H120.25V31.5041H123.098V32.6031H118.957V27.1982Z" fill="#7B8FAA"/>
<path d="M126.486 27.1982H127.557L130.114 32.6031H128.652L128.145 31.4575H125.861L125.372 32.6031H123.943L126.483 27.1982H126.486ZM126.986 28.7691L126.274 30.4486H127.709L126.986 28.7691Z" fill="#7B8FAA"/>
<path d="M131.124 27.1982H132.884L135.383 30.9546H135.4V27.1982H136.694V32.6031H135.002L132.434 28.7567H132.417V32.6031H131.124V27.1982Z" fill="#7B8FAA"/>
<path d="M141.179 27.2009H143.361C143.665 27.2009 143.952 27.2258 144.226 27.2785C144.496 27.3282 144.733 27.4182 144.935 27.5424C145.138 27.6666 145.297 27.8342 145.418 28.0453C145.537 28.2564 145.597 28.5234 145.597 28.8432C145.597 29.1629 145.54 29.4237 145.432 29.6379C145.32 29.8521 145.168 30.0229 144.976 30.1501C144.783 30.2774 144.554 30.3675 144.287 30.4202C144.02 30.473 143.733 30.501 143.422 30.501H142.476V32.6089H141.179V27.204V27.2009ZM142.476 29.492H143.341C143.456 29.492 143.571 29.4827 143.675 29.461C143.784 29.4423 143.881 29.4051 143.966 29.3585C144.054 29.3088 144.121 29.2437 144.172 29.1598C144.226 29.076 144.25 28.9705 144.25 28.8432C144.25 28.7066 144.216 28.5948 144.145 28.511C144.074 28.4272 143.986 28.362 143.878 28.3154C143.77 28.2689 143.648 28.2409 143.517 28.2285C143.385 28.2161 143.257 28.2099 143.135 28.2099H142.47V29.492H142.476Z" fill="#7B8FAA"/>
<path d="M148.148 27.1982H149.219L151.776 32.6031H150.313L149.807 31.4575H147.523L147.034 32.6031H145.605L148.145 27.1982H148.148ZM148.648 28.7691L147.932 30.4486H149.371L148.648 28.7691Z" fill="#7B8FAA"/>
<path d="M152.782 27.1982H155.059C155.36 27.1982 155.643 27.2261 155.91 27.2789C156.181 27.3317 156.414 27.4217 156.616 27.5459C156.819 27.67 156.978 27.8377 157.099 28.0488C157.218 28.2599 157.278 28.5238 157.278 28.8373C157.278 29.2192 157.17 29.5451 156.954 29.8121C156.738 30.0791 156.424 30.2498 156.008 30.3181L157.505 32.5999H155.951L154.721 30.4392H154.083V32.5999H152.786V27.1951L152.782 27.1982ZM154.08 29.4334H154.843C154.958 29.4334 155.083 29.4303 155.211 29.4209C155.343 29.4147 155.458 29.3899 155.562 29.3527C155.667 29.3154 155.755 29.2533 155.823 29.1726C155.89 29.0919 155.927 28.977 155.927 28.828C155.927 28.6914 155.897 28.5796 155.836 28.4989C155.775 28.4182 155.698 28.3561 155.603 28.3127C155.508 28.2692 155.4 28.2413 155.279 28.2257C155.157 28.2102 155.039 28.204 154.921 28.204H154.073V29.4334H154.08Z" fill="#7B8FAA"/>
<path d="M158.626 27.1982H159.923V31.5041H162.322V32.6031H158.626V27.1982Z" fill="#7B8FAA"/>
<path d="M164.733 27.2009H163.436V32.6058H164.733V27.2009Z" fill="#7B8FAA"/>
<path d="M168.26 27.1982H169.331L171.888 32.6031H170.425L169.919 31.4575H167.635L167.145 32.6031H165.717L168.257 27.1982H168.26ZM168.76 28.7691L168.044 30.4486H169.483L168.76 28.7691Z" fill="#7B8FAA"/>
<path d="M172.895 27.1982H174.854L176.208 30.7249H176.225L177.586 27.1982H179.539V32.6031H178.245V28.4587H178.228L176.681 32.6031H175.695L174.208 28.4587H174.192V32.6031H172.895V27.1982Z" fill="#7B8FAA"/>
<path d="M181.2 27.1982H185.193V28.3003H182.494V29.3062H185.044V30.4051H182.494V31.5041H185.345V32.6031H181.2V27.1982Z" fill="#7B8FAA"/>
<path d="M186.797 27.1982H188.557L191.056 30.9546H191.073V27.1982H192.37V32.6031H190.675L188.107 28.7567H188.091V32.6031H186.797V27.1982Z" fill="#7B8FAA"/>
<path d="M195.117 28.2538H193.441V27.1982H198.092V28.2538H196.414V32.6031H195.117V28.2538Z" fill="#7B8FAA"/>
<path d="M54.5518 4.35864H47.6104V0H66.8572V4.35864H59.9158V22.3675H54.5518V4.35864Z" fill="#7B8FAA"/>
<path d="M69.573 0H74.937V8.33853H85.3508V0H90.7148V22.3675H85.3508V12.7003H74.937V22.3675H69.573V0Z" fill="#7B8FAA"/>
<path d="M95.8691 0H112.404V4.54801H101.23V8.71727H111.782V13.2684H101.23V17.8164H113.022V22.3675H95.8691V0Z" fill="#7B8FAA"/>
<path d="M127.699 0H133.059V17.8164H142.994V22.3675H127.699V0Z" fill="#7B8FAA"/>
<path d="M146.155 0H162.69V4.54801H151.519V8.71727H162.072V13.2684H151.519V17.8164H163.308V22.3675H146.155V0Z" fill="#7B8FAA"/>
<path d="M167.81 0V22.3675H173.171V13.6471H183.311V9.09912H173.171V4.54801L192.695 4.5418V22.3675H198.059V4.5418H205V0H167.81Z" fill="#7B8FAA"/>
</svg>