<!DOCTYPE svg PUBLIC "-//W3C//DTD SVG 20010904//EN" "http://www.w3.org/TR/2001/REC-SVG-20010904/DTD/svg10.dtd">
<svg version="1.0" xmlns="http://www.w3.org/2000/svg" width="1600px" height="758px" viewBox="0 0 16000 7580" preserveAspectRatio="xMidYMid meet">
<g id="layer101" fill="#02a0fe" stroke="none">
 <path d="M9650 5335 l0 -1435 305 0 305 0 0 90 c0 50 3 90 6 90 4 0 33 -25 65 -55 70 -64 190 -126 304 -157 115 -30 345 -30 460 1 448 120 755 552 755 1060 0 513 -321 944 -788 1058 -99 24 -302 22 -413 -5 -139 -34 -268 -102 -343 -181 -17 -17 -33 -31 -38 -31 -4 0 -8 225 -8 500 l0 500 -305 0 -305 0 0 -1435z m1229 74 c165 -38 301 -177 341 -349 17 -70 17 -200 0 -270 -37 -159 -145 -284 -290 -335 -77 -27 -177 -37 -260 -25 -252 37 -405 224 -404 495 0 158 37 257 130 355 61 64 125 103 205 124 63 17 215 20 278 5z"/>
 <path d="M1885 5999 c-196 -19 -420 -102 -565 -209 -76 -56 -190 -173 -239 -244 -123 -179 -189 -430 -178 -676 11 -260 95 -478 253 -664 338 -397 990 -483 1420 -188 330 226 506 653 443 1077 l-11 75 -724 0 c-573 0 -724 3 -724 13 0 24 59 114 99 150 179 162 560 164 738 4 l40 -36 233 134 c128 74 237 138 243 144 12 12 -23 61 -102 138 -165 163 -383 258 -649 283 -119 11 -148 11 -277 -1z m529 -1311 c-29 -95 -111 -197 -195 -242 -136 -75 -333 -75 -477 -2 -82 42 -167 147 -196 244 l-7 22 441 0 441 0 -7 -22z"/>
 <path d="M4012 5999 c-270 -35 -491 -210 -595 -469 -60 -153 -60 -151 -64 -922 l-4 -708 310 0 310 0 3 643 3 642 28 60 c65 138 183 203 353 192 152 -9 266 -87 314 -215 34 -89 39 -198 40 -779 l0 -543 305 0 305 0 0 1025 0 1025 -305 0 -305 0 0 -90 c0 -49 -3 -90 -7 -90 -4 0 -30 22 -58 49 -100 99 -236 159 -410 180 -100 12 -131 12 -223 0z"/>
 <path d="M8080 5999 c-512 -60 -910 -470 -949 -981 -47 -604 370 -1107 972 -1170 439 -47 880 191 1074 577 79 157 116 317 116 500 -1 302 -103 554 -308 760 -178 179 -401 286 -660 315 -102 11 -139 11 -245 -1z m235 -604 c160 -34 274 -133 335 -290 20 -51 24 -79 24 -180 0 -100 -3 -130 -22 -180 -65 -174 -212 -286 -397 -302 -201 -17 -376 78 -459 250 -145 294 5 636 307 702 82 18 128 18 212 0z"/>
 <path d="M13085 6000 c-558 -60 -931 -422 -987 -957 -59 -569 289 -1063 827 -1174 499 -103 962 106 1175 531 88 175 126 360 117 574 -4 77 -9 153 -13 169 l-6 27 -724 0 c-573 0 -724 3 -724 13 0 24 59 114 99 150 179 162 560 164 738 3 l40 -36 239 137 c131 75 241 138 242 139 22 16 -126 175 -223 241 -128 86 -283 147 -435 172 -97 15 -274 21 -365 11z m519 -1312 c-16 -53 -59 -124 -102 -170 -80 -85 -188 -128 -327 -128 -212 0 -366 100 -429 278 l-15 42 440 0 440 0 -7 -22z"/>
 <path d="M14680 6000 c-113 -24 -221 -108 -275 -216 -28 -54 -30 -67 -30 -164 0 -99 2 -110 32 -171 39 -80 111 -150 191 -187 50 -24 69 -27 157 -27 93 0 105 2 166 32 80 39 150 111 187 191 24 50 27 69 27 162 0 95 -3 110 -28 159 -69 135 -181 213 -323 225 -33 3 -79 1 -104 -4z"/>
 <path d="M5770 4925 l0 -1025 308 2 307 3 5 162 5 163 33 -65 c47 -90 147 -183 254 -234 84 -40 204 -71 278 -71 l40 0 0 345 0 345 -95 0 c-51 0 -118 5 -147 11 -158 34 -281 134 -344 279 -18 42 -19 80 -24 575 l-5 530 -307 3 -308 2 0 -1025z"/>
 <path d="M4768 2989 c-170 -18 -333 -71 -482 -158 -98 -57 -250 -199 -311 -291 -198 -297 -239 -702 -106 -1046 130 -336 423 -573 789 -640 117 -21 333 -21 436 1 441 93 748 429 817 895 11 81 7 322 -7 383 l-6 27 -724 0 c-573 0 -724 3 -724 13 0 26 61 116 105 155 182 160 554 159 732 -1 l39 -36 239 138 c131 76 241 143 242 148 6 18 -92 128 -165 186 -231 185 -530 263 -874 226z m536 -1311 c-16 -52 -58 -124 -100 -168 -99 -106 -265 -151 -439 -119 -155 29 -269 123 -319 267 l-15 42 440 0 440 0 -7 -22z"/>
 <path d="M9536 2989 c-209 -24 -417 -102 -566 -214 -60 -44 -162 -147 -208 -210 -236 -320 -267 -810 -74 -1178 167 -319 472 -513 859 -547 580 -51 1056 334 1134 917 11 85 7 315 -7 376 l-6 27 -724 0 c-495 0 -724 3 -724 10 0 23 44 96 86 140 164 175 565 184 751 17 l39 -36 239 138 c131 76 241 143 242 148 6 16 -84 120 -152 176 -232 191 -550 276 -889 236z m538 -1311 c-16 -52 -58 -124 -100 -168 -99 -106 -265 -151 -439 -119 -155 29 -269 123 -319 267 l-15 42 440 0 440 0 -7 -22z"/>
 <path d="M2440 1915 l0 -1025 305 0 305 0 0 165 c0 91 3 165 8 165 4 0 17 -21 29 -48 80 -172 278 -294 513 -318 l70 -7 0 346 0 345 -122 4 c-100 4 -136 10 -192 31 -141 53 -234 145 -278 276 -22 64 -22 82 -26 579 l-3 512 -305 0 -304 0 0 -1025z"/>
 <path d="M6272 1918 l3 -1023 305 0 305 0 3 88 3 89 62 -59 c125 -117 298 -175 517 -175 139 0 229 19 341 70 223 102 379 331 418 616 7 49 11 321 11 747 l0 669 -307 -2 -308 -3 -5 -645 -5 -645 -28 -57 c-16 -33 -49 -76 -78 -102 -68 -61 -130 -81 -249 -80 -111 1 -182 23 -246 78 -48 41 -98 131 -113 204 -7 35 -11 252 -11 652 l0 600 -310 0 -310 0 2 -1022z"/>
 <path d="M11193 2277 c-117 -364 -263 -819 -324 -1012 -61 -192 -114 -355 -116 -362 -4 -10 61 -13 324 -13 l330 0 141 531 c78 293 144 534 147 537 3 3 7 3 9 1 3 -2 66 -213 141 -469 75 -256 145 -495 156 -533 l20 -67 286 2 286 3 18 55 c10 30 79 269 154 530 75 261 140 479 145 483 4 5 21 -45 39 -110 17 -65 82 -307 145 -538 l114 -420 327 -3 327 -2 -6 24 c-3 13 -123 388 -265 832 -143 445 -287 896 -321 1002 l-61 192 -287 0 -287 0 -154 -512 c-85 -282 -159 -526 -166 -543 l-12 -30 -21 70 c-11 39 -71 239 -132 445 -61 206 -125 419 -141 473 l-30 97 -287 0 -287 0 -212 -663z"/>
 </g>

</svg>